<?xml version="1.0"?>
<svg xmlns="http://www.w3.org/2000/svg" width="332" height="85" viewBox="129.5 85.3 332 85.3">
  <style>.a{fill:#00A6CA;}.b{fill:#939393;}</style>
  <path d="M162.3 116.2c-0.4-0.3-0.9-0.5-1.4-0.7 -0.5-0.1-1-0.2-1.6-0.2 -0.4 0-0.8 0-1.2 0.1 -0.4 0.1-0.8 0.2-1.1 0.4 -0.3 0.2-0.6 0.4-0.9 0.6 -0.3 0.3-0.5 0.6-0.6 0.9 0-0.5-0.2-0.9-0.4-1.2 -0.3-0.3-0.6-0.5-0.9-0.7s-0.8-0.2-1.3-0.2c-0.5 0-0.9 0.1-1.4 0.1l0 1.9c0.3 0 0.6 0 0.8 0.1 0.2 0.1 0.3 0.2 0.4 0.3 0.1 0.1 0.1 0.3 0.1 0.5 0 0.2 0 0.5 0 0.7v9.2h2.9v-7.3c0-0.5 0.1-0.9 0.3-1.3 0.2-0.4 0.4-0.7 0.7-0.9 0.3-0.2 0.6-0.4 1-0.6s0.8-0.2 1.2-0.2c0.7 0 1.4 0.2 2.1 0.5l0 0L162.3 116.2z" class="a"/>
  <path d="M174.9 126.2c-0.2-0.1-0.3-0.2-0.4-0.4 -0.1-0.1-0.1-0.4-0.1-0.6s0-0.5 0-0.8v-8c-0.9-0.4-1.7-0.6-2.6-0.9 -0.9-0.2-1.7-0.3-2.7-0.3 -1 0-2 0.1-2.9 0.4 -0.9 0.3-1.6 0.8-2.3 1.4s-1.1 1.3-1.5 2.2c-0.4 0.9-0.6 1.8-0.6 2.9 0 0.9 0.1 1.7 0.4 2.5s0.6 1.4 1.1 2c0.5 0.6 1.1 1 1.8 1.4 0.7 0.3 1.6 0.5 2.5 0.5 0.9 0 1.8-0.2 2.6-0.7 0.8-0.5 1.4-1.2 1.8-2 0 0.7 0.1 1.2 0.3 1.6 0.2 0.4 0.5 0.6 0.9 0.9 0.4 0.2 0.7 0.3 1.2 0.3 0.4 0 0.9 0 1.4-0.1v-2C175.4 126.3 175.1 126.3 174.9 126.2zM171.6 121.9c0 1.2-0.3 2.1-0.9 2.9 -0.6 0.8-1.4 1.1-2.4 1.1 -1.2 0-2.1-0.4-2.6-1 -0.6-0.7-0.9-1.6-0.9-2.8 0-0.7 0.1-1.3 0.4-1.9 0.2-0.6 0.5-1 0.9-1.4s0.8-0.7 1.3-0.9c0.5-0.2 1.1-0.3 1.6-0.3 0.4 0 0.9 0 1.3 0.1 0.5 0.1 0.9 0.2 1.4 0.4v3.7H171.6z" class="a"/>
  <path d="M188.6 116.9c-0.4-0.5-0.9-0.9-1.6-1.1 -0.6-0.3-1.4-0.4-2.2-0.4 -0.4 0-0.9 0-1.3 0.1 -0.4 0.1-0.9 0.2-1.2 0.4 -0.4 0.2-0.8 0.4-1.1 0.7 -0.3 0.3-0.6 0.6-0.7 1 0-0.6-0.1-1.1-0.4-1.4 -0.2-0.3-0.6-0.6-0.9-0.6 -0.4-0.1-0.8-0.1-1.3-0.1 -0.5 0-0.9 0.1-1.4 0.2v2c0.3 0 0.6 0 0.8 0 0.2 0 0.3 0.1 0.4 0.3 0.1 0.1 0.1 0.3 0.1 0.6 0 0.2 0 0.5 0 0.9v9h2.9v-7.2c0-0.5 0.1-1 0.3-1.4 0.2-0.4 0.4-0.8 0.7-1.1 0.3-0.3 0.6-0.5 1-0.7 0.4-0.2 0.8-0.2 1.3-0.2 0.9 0 1.6 0.3 2.1 0.9 0.6 0.6 0.9 1.3 0.8 2.3v7.5h2.9v-7.5c0-0.8-0.1-1.5-0.3-2.2C189.4 117.9 189 117.4 188.6 116.9z" class="a"/>
  <path d="M201.5 121.6c-0.5-0.3-1-0.5-1.7-0.6 -0.6-0.1-1.3-0.2-1.9-0.3 -1-0.1-1.8-0.3-2.3-0.5 -0.5-0.2-0.8-0.5-0.8-1.1 0-0.3 0-0.5 0.2-0.8 0.1-0.2 0.3-0.4 0.6-0.6s0.5-0.3 0.9-0.4c0.3-0.1 0.6-0.1 1-0.1 0.3 0 0.7 0 1 0.1 0.4 0.1 0.6 0.1 0.9 0.3s0.5 0.3 0.7 0.5c0.2 0.2 0.3 0.5 0.3 0.8h2.5c0-0.6-0.1-1.2-0.4-1.7 -0.3-0.5-0.7-0.9-1.2-1.2 -0.5-0.3-1.1-0.6-1.7-0.7 -0.6-0.1-1.4-0.2-2.1-0.2 -0.7 0-1.4 0.1-2 0.2 -0.6 0.1-1.2 0.4-1.7 0.7 -0.5 0.3-0.9 0.7-1.2 1.2 -0.3 0.5-0.5 1.1-0.5 1.8 0 0.7 0.2 1.3 0.5 1.7 0.4 0.4 0.8 0.8 1.3 1s1.1 0.4 1.8 0.5c0.6 0.1 1.3 0.2 2 0.3 0.9 0.1 1.5 0.3 2.1 0.5 0.5 0.2 0.8 0.6 0.8 1.2 0 0.4-0.1 0.7-0.3 1 -0.2 0.3-0.4 0.4-0.7 0.6 -0.3 0.1-0.6 0.2-1 0.3 -0.4 0.1-0.7 0.1-1.1 0.1s-0.7 0-1-0.1c-0.3-0.1-0.6-0.2-0.9-0.4 -0.3-0.1-0.5-0.4-0.7-0.6 -0.2-0.2-0.3-0.5-0.3-0.9h-2.9c0.1 0.8 0.3 1.4 0.6 2 0.4 0.5 0.8 0.9 1.3 1.3 0.5 0.3 1.1 0.5 1.8 0.6 0.7 0.1 1.4 0.2 2.1 0.2 0.7 0 1.4-0.1 2.1-0.2 0.7-0.1 1.3-0.4 1.8-0.7s0.9-0.7 1.2-1.3c0.3-0.5 0.5-1.1 0.5-1.8 0-0.8-0.1-1.4-0.4-1.8C202.3 122.3 201.9 121.9 201.5 121.6z" class="a"/>
  <path d="M233.6 116.9c-0.4-0.5-0.9-0.9-1.6-1.1 -0.6-0.3-1.4-0.4-2.2-0.4 -0.4 0-0.9 0-1.3 0.1 -0.4 0.1-0.9 0.2-1.2 0.4 -0.4 0.2-0.8 0.4-1.1 0.7 -0.3 0.3-0.6 0.6-0.7 1 0-0.6-0.1-1.1-0.4-1.4 -0.2-0.3-0.6-0.6-0.9-0.6 -0.4-0.1-0.8-0.1-1.3-0.1 -0.5 0-0.9 0.1-1.4 0.2v2c0.3 0 0.6 0 0.8 0 0.2 0 0.3 0.1 0.4 0.3 0.1 0.1 0.1 0.3 0.1 0.6 0 0.2 0 0.5 0 0.9v9h2.9v-7.2c0-0.5 0.1-1 0.3-1.4 0.2-0.4 0.4-0.8 0.7-1.1 0.3-0.3 0.6-0.5 1-0.7s0.8-0.2 1.3-0.2c0.9 0 1.6 0.3 2.1 0.9 0.6 0.6 0.9 1.3 0.8 2.3v7.5h2.9v-7.5c0-0.8-0.1-1.5-0.3-2.2C234.4 117.9 234 117.4 233.6 116.9z" class="a"/>
  <path d="M238.7 109.9c-0.4 0-0.9 0.1-1.2 0.4 -0.4 0.3-0.5 0.7-0.5 1.3 0 0.6 0.2 1 0.6 1.3 0.4 0.3 0.8 0.4 1.2 0.4 0.4 0 0.8-0.2 1.1-0.4 0.4-0.3 0.5-0.7 0.5-1.3 0-0.6-0.2-1-0.5-1.3S239.1 109.9 238.7 109.9z" class="a"/>
  <rect x="237.3" y="115.6" width="2.9" height="12.7" class="a"/>
  <path d="M253.5 116.9c-0.6-0.5-1.4-0.9-2.2-1.2 -0.8-0.3-1.7-0.4-2.6-0.4 -0.8 0-1.6 0.1-2.4 0.4 -0.8 0.3-1.5 0.7-2.1 1.2 -0.6 0.6-1.1 1.2-1.5 2 -0.4 0.8-0.6 1.8-0.6 2.9 0 1.1 0.2 2.1 0.6 2.9s0.9 1.5 1.5 2.1c0.6 0.6 1.3 1 2.1 1.2 0.8 0.3 1.6 0.4 2.5 0.4s1.7-0.1 2.5-0.4c0.8-0.3 1.5-0.7 2.1-1.2 0.6-0.6 1.1-1.2 1.5-2.1 0.4-0.8 0.6-1.8 0.6-2.9s-0.2-2.1-0.6-2.9C254.6 118.1 254.1 117.4 253.5 116.9zM252.4 123.6c-0.2 0.5-0.5 0.9-0.9 1.3 -0.4 0.4-0.8 0.6-1.2 0.8 -0.5 0.2-0.9 0.3-1.4 0.3 -0.5 0-1-0.1-1.4-0.3 -0.5-0.2-0.9-0.4-1.3-0.8s-0.7-0.8-0.9-1.3c-0.2-0.5-0.3-1.1-0.3-1.8 0-0.7 0.1-1.3 0.3-1.8 0.2-0.5 0.5-0.9 0.9-1.2 0.4-0.3 0.8-0.6 1.2-0.7 0.4-0.2 0.9-0.3 1.4-0.3 0.5 0 1 0.1 1.4 0.2s0.9 0.4 1.3 0.7c0.4 0.3 0.7 0.8 0.9 1.3 0.2 0.5 0.4 1.1 0.4 1.8C252.7 122.5 252.6 123.1 252.4 123.6z" class="a"/>
  <path d="M139.2 112.5v-2.7h13.7v2.7h-5.4v15.7h-3v-15.7H139.2z" class="a"/>
  <path d="M205.3 122.1v-12.3h3.1v12.2c0 2.4 1.8 3.8 4.2 3.8 2.3 0 4.1-1.4 4.1-3.8v-12.2h3v12.3c0 4.1-3.2 6.4-7.1 6.4C208.5 128.5 205.3 126.2 205.3 122.1z" class="a"/>
  <path d="M269.9 125.3v-2l0 0v-2.5c0-0.8-0.1-1.5-0.3-2.2 -0.2-0.7-0.5-1.2-0.9-1.7 -0.4-0.5-0.9-0.9-1.6-1.1 -0.6-0.3-1.4-0.4-2.2-0.4 -0.4 0-0.9 0-1.3 0.1 -0.4 0.1-0.9 0.2-1.2 0.4 -0.4 0.2-0.8 0.4-1.1 0.7 -0.3 0.3-0.6 0.6-0.7 1 0-0.6-0.1-1.1-0.4-1.4 -0.2-0.3-0.6-0.6-0.9-0.6 -0.4-0.1-0.8-0.1-1.3-0.1 -0.5 0-0.9 0.1-1.4 0.2v2c0.3 0 0.6 0 0.8 0 0.2 0 0.3 0.1 0.4 0.3s0.1 0.3 0.1 0.6c0 0.2 0 0.5 0 0.9v9h2.9v-7.2c0-0.5 0.1-1 0.2-1.4 0.2-0.4 0.4-0.8 0.7-1.1s0.6-0.5 1-0.7c0.4-0.2 0.8-0.2 1.3-0.2 0.9 0 1.6 0.3 2.1 0.9 0.6 0.6 0.9 1.3 0.8 2.3v4.3l0 0v0.3c0 3.1 1.9 3.4 4.4 2.9v-1.9C270.1 126.6 269.9 126.3 269.9 125.3z" class="a"/>
  <path d="M277.4 89.1c-4.9 0-9.2 2.7-11.5 6.7 -0.9 1.6-0.9 3-0.3 4.1 0.8 1.3 2.5 1.5 3.4 1.5h1.7l-0.6 1.9c-0.4 1.2-0.2 2.4 0.4 3.3 0.6 0.8 1.6 1.3 2.7 1.3 0.8 0 1.6-0.1 2.4-0.5 -0.2-0.3-0.4-0.6-0.5-0.9s-0.2-0.6-0.2-1c-0.5 0.2-1 0.3-1.5 0.3 -0.3 0-0.7-0.1-1-0.4 -0.2-0.3-0.3-0.8-0.1-1.3l0.9-2.6h2.6l0.7-2.1h-2.6l1.1-3.5h-2.3l-1.1 3.5h-2.4c-0.8 0-1.2-0.2-1.5-0.6 -0.3-0.4 0-1.4 0.6-2.4l0 0c2-3 5.4-4.9 9.3-4.9 6.2 0 11.1 5 11.1 11.1 0 6.2-5 11.1-11.1 11.1 -5.4 0-10-3.9-11-9.1L264.4 105c1.2 6.1 6.6 10.8 13.1 10.8 7.4 0 13.3-6 13.3-13.3C290.7 95.1 284.7 89.1 277.4 89.1z" class="a"/>
  <path d="M285.8 106c-0.5 0-1.2-0.1-1.6-0.4 -0.2-0.1-0.4-0.3-0.4-0.7v0c0-0.2 0-0.4 0.1-0.6l1.6-5.1 0 0h-2.3l0 0 -1.4 4.4 0 0c-0.4 1.1-1.6 2.1-2.6 2.1 -0.3 0-0.6-0.1-0.8-0.4 -0.1-0.2-0.3-0.5-0.1-1l1.6-5.1h-2.3l-1.4 4.4c-0.4 1.1-0.2 2.2 0.4 3 0.6 0.8 1.5 1.2 2.5 1.2s2.2-0.4 3.1-1.2c0.3 0.5 0.7 0.8 1.2 1 0.7 0.2 1.2 0.2 1.7 0.2 0.2 0 0.5-0.1 0.6-0.1 0.1-0.1 0.1-0.1 0.1-0.2 0.1-0.1 0.2-0.3 0.2-0.4 0.1-0.1 0.1-0.3 0.2-0.4 0.1-0.1 0.1-0.3 0.2-0.4 0-0.1 0.1-0.2 0.1-0.3C286.5 106 286.2 106 285.8 106z" class="a"/>
  <path d="M272.8 126.8c0-2.3 3.4-2.3 3.4 0C276.2 129.1 272.8 129.1 272.8 126.8zM275.9 126.8c0-1.9-2.8-1.9-2.8 0C273.1 128.7 275.9 128.7 275.9 126.8zM275.3 127.6v0H275L274.6 127h-0.4v0.6h-0.3v-1.6h0.7c0.3 0 0.6 0.2 0.6 0.5 0 0.2-0.1 0.4-0.4 0.5L275.3 127.6zM274.2 126.8h0.4c0.2 0 0.4-0.1 0.4-0.3 0-0.2-0.1-0.3-0.4-0.3h-0.4V126.8z" class="a"/>
  <path d="M319.8 123.1c0 0.6 0.2 1.1 0.5 1.5 0.3 0.4 0.7 0.8 1.2 1s1.1 0.4 1.6 0.6c0.6 0.1 1.2 0.2 1.7 0.2 0.5 0 1.1-0.1 1.7-0.1 0.6-0.1 1.1-0.3 1.6-0.5 0.5-0.3 0.9-0.6 1.2-1.1 0.3-0.4 0.5-1 0.5-1.6 0-0.7-0.1-1.3-0.5-1.7 -0.3-0.4-0.7-0.7-1.2-0.9 -0.5-0.2-1.1-0.4-1.7-0.4 -0.6-0.1-1.2-0.1-1.9-0.2 -0.8-0.1-1.6-0.2-2.4-0.4 -0.8-0.2-1.5-0.4-2.1-0.8 -0.6-0.4-1.1-0.8-1.5-1.4 -0.4-0.6-0.6-1.3-0.6-2.2 0-0.9 0.2-1.7 0.6-2.3 0.4-0.6 0.9-1.2 1.5-1.6 0.6-0.4 1.3-0.7 2.1-0.9 0.8-0.2 1.6-0.3 2.4-0.3 0.8 0 1.6 0.1 2.4 0.3 0.8 0.2 1.5 0.5 2.1 0.9 0.6 0.4 1.2 0.9 1.6 1.5s0.6 1.4 0.7 2.3h-2c-0.1-0.6-0.2-1-0.5-1.4 -0.3-0.4-0.7-0.7-1.1-0.9 -0.4-0.2-0.9-0.4-1.5-0.5 -0.5-0.1-1.1-0.1-1.6-0.1 -0.5 0-1 0.1-1.5 0.2 -0.5 0.1-1 0.3-1.4 0.5 -0.4 0.3-0.8 0.6-1.1 1 -0.3 0.4-0.4 0.9-0.4 1.5 0 0.7 0.1 1.2 0.4 1.6 0.3 0.4 0.7 0.7 1.1 0.9 0.5 0.2 1 0.3 1.6 0.4 0.6 0.1 1.1 0.1 1.7 0.2 0.9 0.1 1.8 0.2 2.6 0.4 0.8 0.2 1.6 0.4 2.2 0.8 0.6 0.4 1.2 0.9 1.6 1.5s0.6 1.4 0.6 2.4c0 1-0.2 1.8-0.6 2.4 -0.4 0.7-1 1.2-1.6 1.6s-1.4 0.7-2.3 0.9c-0.8 0.2-1.6 0.3-2.5 0.3 -0.9 0-1.7-0.1-2.5-0.3 -0.9-0.2-1.6-0.5-2.3-0.9 -0.7-0.4-1.3-0.9-1.7-1.6 -0.4-0.7-0.7-1.5-0.7-2.4h2.1V123.1z" class="a"/>
  <path d="M351.4 128.1v-7.4c0-0.5-0.1-1-0.1-1.4 -0.1-0.4-0.3-0.8-0.5-1.1 -0.2-0.3-0.5-0.6-0.9-0.8 -0.4-0.2-0.8-0.3-1.3-0.3s-1 0.1-1.4 0.3c-0.4 0.2-0.8 0.4-1.2 0.8 -0.3 0.3-0.6 0.7-0.8 1.2 -0.2 0.5-0.3 1-0.3 1.5v7.3h-2v-7.3c0-0.5-0.1-1-0.1-1.5s-0.3-0.9-0.5-1.2c-0.2-0.3-0.5-0.6-0.9-0.8C341 117.1 340.5 117 340 117c-1.1 0-1.9 0.4-2.6 1 -0.6 0.7-0.9 1.6-0.9 2.7V128h-2v-9c0-0.4 0-0.8 0-1 0-0.3-0.1-0.5-0.2-0.6 -0.1-0.1-0.3-0.3-0.4-0.3 -0.2-0.1-0.4-0.1-0.8 0L333 115.5c0.4-0.1 0.9-0.1 1.3-0.1 0.4 0 0.8 0 1.1 0.1 0.3 0.1 0.5 0.3 0.7 0.6 0.2 0.3 0.3 0.8 0.3 1.4 0.4-0.8 1-1.4 1.8-1.7 0.7-0.3 1.6-0.5 2.4-0.5 2.1 0 3.4 0.9 3.9 2.7 0.5-1 1.1-1.7 2-2.1 0.8-0.4 1.7-0.6 2.8-0.6 0.8 0 1.5 0.1 2.1 0.4 0.6 0.3 1 0.7 1.3 1.1 0.3 0.5 0.6 1 0.7 1.7s0.2 1.3 0.2 2.1v7.4H351.4z" class="a"/>
  <path d="M365.2 125.8c-0.2 0.4-0.5 0.8-0.9 1.1 -0.4 0.3-0.8 0.6-1.2 0.8s-0.9 0.4-1.4 0.4c-0.5 0.1-1 0.1-1.4 0.1 -0.6 0-1.1-0.1-1.6-0.2 -0.5-0.1-1-0.4-1.4-0.6 -0.4-0.3-0.7-0.7-1-1.1 -0.2-0.5-0.4-1-0.4-1.6 0-0.7 0.1-1.3 0.4-1.8 0.2-0.5 0.6-0.9 1-1.3 0.4-0.4 0.9-0.6 1.5-0.8 0.6-0.2 1.2-0.3 1.8-0.3 0.7 0 1.5 0.1 2.2 0.2 0.8 0.1 1.4 0.4 2.1 0.7v-1.8c0-0.5-0.1-0.9-0.4-1.3 -0.3-0.4-0.6-0.6-1-0.8 -0.4-0.2-0.8-0.3-1.3-0.4 -0.5-0.1-0.9-0.1-1.3-0.1 -0.7 0-1.4 0.1-2.1 0.2 -0.6 0.1-1.2 0.4-1.8 0.7l-0.3-1.6c0.6-0.3 1.3-0.5 2.1-0.7 0.8-0.1 1.6-0.2 2.4-0.2 0.7 0 1.4 0.1 2.1 0.2s1.3 0.4 1.8 0.7c0.5 0.3 0.9 0.8 1.2 1.3 0.3 0.6 0.4 1.2 0.4 2.1v5.2c0 0.4 0 0.6 0 0.9s0.1 0.5 0.1 0.6c0.1 0.2 0.2 0.3 0.4 0.4 0.2 0.1 0.5 0.1 0.9 0l0 1.3c-0.5 0.1-1 0.1-1.4 0.1 -0.4 0-0.7-0.1-1-0.3 -0.3-0.2-0.4-0.4-0.6-0.8C365.2 126.9 365.2 126.4 365.2 125.8zM364.9 123c-0.4-0.2-0.9-0.4-1.6-0.6 -0.7-0.2-1.4-0.3-2.1-0.3 -0.4 0-0.8 0-1.2 0.1 -0.4 0.1-0.7 0.2-1 0.4 -0.3 0.2-0.6 0.4-0.7 0.8 -0.2 0.3-0.3 0.7-0.3 1.1 0 0.4 0.1 0.7 0.2 1 0.1 0.3 0.4 0.5 0.6 0.6 0.3 0.1 0.6 0.3 0.9 0.3 0.3 0.1 0.7 0.1 1 0.1 0.4 0 0.9-0.1 1.3-0.1 0.4-0.1 0.9-0.3 1.3-0.5 0.4-0.2 0.8-0.5 1.1-0.9s0.5-0.8 0.6-1.3V123z" class="a"/>
  <path d="M372.6 117.4c0.4-0.7 0.9-1.2 1.6-1.5 0.7-0.3 1.4-0.4 2.2-0.4 1.1 0 2.1 0.3 2.9 0.9l-0.5 1.7c-0.4-0.3-0.8-0.5-1.3-0.6s-0.9-0.2-1.4-0.2c-0.4 0-0.9 0.1-1.3 0.2 -0.4 0.1-0.8 0.4-1.1 0.6 -0.3 0.3-0.6 0.6-0.8 1 -0.2 0.4-0.3 0.9-0.3 1.3v7.6h-2v-9.4c0-0.3 0-0.5 0-0.8 0-0.2-0.1-0.4-0.2-0.6 -0.1-0.1-0.2-0.3-0.4-0.3 -0.2-0.1-0.5-0.1-0.9-0.1l0-1.4c0.5-0.1 0.9-0.1 1.3-0.1 0.4 0 0.8 0.1 1.1 0.2 0.3 0.1 0.5 0.3 0.7 0.6C372.5 116.5 372.6 116.9 372.6 117.4z" class="a"/>
  <path d="M384.4 115.6h4.6v1.5h-4.6v6.3c0 1.1 0.2 1.9 0.7 2.5 0.4 0.5 1.1 0.8 1.9 0.8 0.7 0 1.5-0.2 2.4-0.5l0.2 1.6c-1.1 0.4-2.2 0.6-3.2 0.6 -1.2 0-2.2-0.4-2.9-1.1 -0.7-0.8-1.1-2-1.1-3.7v-6.4L379.6 117v-1.4h2.8l0.2-3.9h1.7v3.9H384.4z" class="a"/>
  <path d="M407.6 109.9h0.8v18.1h-2.2V115l-5.9 8.2H400L394 115v13.1h-2.2v-18.1h0.9l7.4 10.1L407.6 109.9z" class="a"/>
  <path d="M423.6 121.8c0 1.1-0.2 2-0.6 2.9 -0.4 0.8-0.9 1.5-1.5 2 -0.6 0.5-1.3 0.9-2.1 1.2 -0.8 0.3-1.6 0.4-2.4 0.4s-1.6-0.1-2.4-0.4c-0.8-0.3-1.5-0.7-2.1-1.2 -0.6-0.5-1.1-1.2-1.5-2 -0.4-0.8-0.6-1.7-0.6-2.8 0-1.1 0.2-2 0.6-2.9 0.4-0.8 0.9-1.5 1.5-2 0.6-0.5 1.3-0.9 2.1-1.2s1.6-0.4 2.4-0.4c0.8 0 1.6 0.1 2.4 0.4 0.8 0.3 1.5 0.7 2.1 1.2 0.6 0.5 1.1 1.2 1.5 2C423.4 119.8 423.6 120.7 423.6 121.8zM412.5 121.8c0 0.8 0.1 1.5 0.4 2.1 0.3 0.6 0.6 1.1 1 1.5 0.4 0.4 0.9 0.7 1.5 0.9 0.6 0.2 1.1 0.3 1.7 0.3 0.6 0 1.1-0.1 1.7-0.3 0.6-0.2 1-0.5 1.4-0.9 0.4-0.4 0.8-0.9 1-1.5s0.4-1.3 0.4-2.1c0-0.8-0.1-1.5-0.4-2.1s-0.6-1.1-1-1.5c-0.4-0.4-0.9-0.7-1.5-0.9 -0.5-0.2-1.1-0.3-1.7-0.3 -0.6 0-1.1 0.1-1.7 0.3 -0.5 0.2-1 0.5-1.4 0.9 -0.4 0.4-0.8 0.9-1 1.5C412.6 120.3 412.5 121 412.5 121.8z" class="a"/>
  <path d="M429.7 128.2l-5.9-12.4v-0.2h2.2l2.1 4.7 2.1 4.9 2.1-4.9 2.1-4.6h2.2v0.2l-5.9 12.4H429.7z" class="a"/>
  <path d="M443 115.4c2.1 0 3.7 0.6 4.6 1.8 0.9 1.2 1.2 2.8 0.9 4.9h-9.9c0 0.7 0.1 1.4 0.3 1.9 0.2 0.6 0.6 1 1.1 1.4 0.4 0.4 1 0.7 1.6 0.9 0.6 0.2 1.3 0.3 2 0.3 0.7 0 1.4-0.1 2.1-0.2 0.7-0.1 1.4-0.4 2.1-0.7l0.3 1.5c-1.5 0.7-3 1.1-4.6 1.1 -1 0-2-0.1-2.9-0.5 -0.9-0.3-1.6-0.8-2.2-1.4 -0.6-0.6-1.1-1.3-1.4-2.1 -0.3-0.8-0.5-1.8-0.4-2.9 0-1 0.2-1.9 0.6-2.6 0.4-0.8 0.8-1.4 1.4-1.9 0.6-0.5 1.2-0.9 2-1.2C441.3 115.5 442.1 115.4 443 115.4zM443 117c-1.1 0-2.1 0.3-2.9 0.9 -0.8 0.6-1.3 1.5-1.4 2.6h8.1c0-0.6 0-1.1-0.2-1.5 -0.2-0.4-0.5-0.8-0.8-1.1 -0.4-0.3-0.8-0.5-1.2-0.6C444.1 117.1 443.6 117 443 117z" class="a"/>
  <path d="M449.3 126.8c0-2.3 3.4-2.3 3.4 0C452.7 129.1 449.3 129.1 449.3 126.8zM452.4 126.8c0-1.9-2.8-1.9-2.8 0C449.6 128.7 452.4 128.7 452.4 126.8zM451.8 127.6v0H451.5L451.1 127h-0.4v0.6h-0.3v-1.6h0.7c0.3 0 0.6 0.2 0.6 0.5 0 0.2-0.1 0.4-0.4 0.5L451.8 127.6zM450.7 126.8h0.4c0.2 0 0.4-0.1 0.4-0.3 0-0.2-0.1-0.3-0.4-0.3h-0.4V126.8z" class="a"/>
  <line x1="302.4" y1="99.3" x2="302.4" y2="135.1" style="fill:none;stroke:#00A6CA"/>
  <path d="M138.9 158.4c0-0.7 0.1-1.3 0.4-1.9s0.6-1.1 0.9-1.4c0.4-0.4 0.9-0.7 1.4-0.9 0.5-0.2 1.1-0.3 1.8-0.3 0.4 0 0.9 0.1 1.3 0.1 0.4 0.1 0.8 0.3 1.2 0.5 0.4 0.2 0.7 0.5 0.9 0.8s0.5 0.7 0.6 1.2h-1.1c-0.1-0.3-0.3-0.6-0.5-0.8 -0.2-0.2-0.4-0.4-0.7-0.5 -0.3-0.1-0.5-0.2-0.9-0.3 -0.3-0.1-0.6-0.1-0.9-0.1 -0.5 0-1 0.1-1.4 0.3 -0.4 0.2-0.8 0.4-1.1 0.8 -0.3 0.3-0.5 0.7-0.7 1.1S140 157.8 140 158.3c0 0.5 0.1 1 0.2 1.4 0.1 0.4 0.4 0.8 0.7 1.1 0.3 0.3 0.6 0.6 1.1 0.8 0.4 0.2 0.9 0.3 1.4 0.3 0.5 0 0.9-0.1 1.3-0.2s0.7-0.3 1-0.6c0.3-0.2 0.5-0.6 0.7-0.9 0.2-0.4 0.3-0.8 0.3-1.3H143.5v-0.9h4.2c0 0.6-0.1 1.3-0.2 1.9 -0.2 0.6-0.4 1.1-0.8 1.5 -0.4 0.4-0.8 0.8-1.4 1.1 -0.6 0.3-1.2 0.4-1.9 0.4 -0.6 0-1.2-0.1-1.8-0.3 -0.6-0.2-1-0.5-1.4-0.9 -0.4-0.4-0.7-0.9-0.9-1.5C139 159.7 138.9 159.1 138.9 158.4z" class="b"/>
  <path d="M150.3 157.6c0.2-0.4 0.4-0.6 0.8-0.8 0.3-0.1 0.7-0.2 1.1-0.2 0.5 0 1 0.1 1.4 0.5l-0.2 0.9c-0.2-0.1-0.4-0.2-0.6-0.3 -0.2-0.1-0.4-0.1-0.7-0.1s-0.4 0-0.6 0.1c-0.2 0.1-0.4 0.2-0.6 0.3 -0.1 0.1-0.3 0.3-0.4 0.5 -0.1 0.2-0.1 0.4-0.1 0.6v3.8h-1v-4.7c0-0.1 0-0.3 0-0.4s0-0.2-0.1-0.3c-0.1-0.1-0.1-0.1-0.2-0.1 -0.1 0-0.2 0-0.4 0v-0.7c0.2 0 0.5-0.1 0.6-0.1 0.2 0 0.4 0 0.5 0.1 0.1 0.1 0.3 0.1 0.4 0.3C150.3 157.1 150.3 157.3 150.3 157.6z" class="b"/>
  <path d="M157.5 156.6c1.1 0 1.8 0.3 2.3 0.9 0.5 0.6 0.6 1.4 0.4 2.4h-4.9c0 0.4 0 0.7 0.1 0.9s0.3 0.5 0.5 0.7c0.2 0.2 0.5 0.4 0.8 0.4 0.3 0.1 0.6 0.1 1 0.1s0.7 0 1.1-0.1c0.3-0.1 0.7-0.2 1.1-0.3l0.1 0.8c-0.7 0.4-1.5 0.5-2.3 0.5 -0.5 0-1-0.1-1.4-0.2 -0.4-0.1-0.8-0.4-1.1-0.7 -0.3-0.3-0.5-0.6-0.7-1.1s-0.2-0.9-0.2-1.4c0-0.5 0.1-0.9 0.3-1.3 0.2-0.4 0.4-0.7 0.7-0.9 0.3-0.3 0.6-0.5 1-0.6C156.7 156.6 157.1 156.6 157.5 156.6zM157.5 157.4c-0.6 0-1 0.1-1.4 0.4s-0.6 0.7-0.7 1.3h4c0-0.3 0-0.6-0.1-0.8 -0.1-0.2-0.2-0.4-0.4-0.6 -0.2-0.1-0.4-0.3-0.6-0.3C158.1 157.4 157.8 157.4 157.5 157.4z" class="b"/>
  <path d="M166 161.8c-0.1 0.2-0.3 0.4-0.4 0.6 -0.2 0.1-0.4 0.3-0.6 0.4 -0.2 0.1-0.4 0.2-0.7 0.2 -0.2 0.1-0.5 0.1-0.7 0.1 -0.3 0-0.6 0-0.8-0.1s-0.5-0.2-0.7-0.3c-0.2-0.1-0.4-0.3-0.5-0.6s-0.2-0.5-0.2-0.8c0-0.4 0.1-0.6 0.2-0.9s0.3-0.5 0.5-0.6c0.2-0.2 0.5-0.3 0.8-0.4 0.3-0.1 0.6-0.1 0.9-0.1 0.4 0 0.7 0 1.1 0.1 0.4 0.1 0.7 0.2 1 0.4v-0.9c0-0.3-0.1-0.5-0.2-0.6 -0.1-0.2-0.3-0.3-0.5-0.4 -0.2-0.1-0.4-0.1-0.6-0.2 -0.2 0-0.4-0.1-0.6-0.1 -0.4 0-0.7 0-1 0.1 -0.3 0.1-0.6 0.2-0.9 0.4l-0.2-0.8c0.3-0.1 0.6-0.3 1-0.4 0.4-0.1 0.8-0.1 1.2-0.1 0.4 0 0.7 0 1 0.1 0.3 0.1 0.6 0.2 0.9 0.4 0.3 0.2 0.4 0.4 0.6 0.6 0.1 0.3 0.2 0.6 0.2 1v2.6c0 0.2 0 0.3 0 0.4 0 0.1 0 0.2 0.1 0.3 0 0.1 0.1 0.1 0.2 0.2 0.1 0 0.2 0 0.4 0v0.6c-0.3 0-0.5 0.1-0.7 0.1 -0.2 0-0.4-0.1-0.5-0.1s-0.2-0.2-0.3-0.4C166.1 162.3 166 162 166 161.8zM165.9 160.4c-0.2-0.1-0.5-0.2-0.8-0.3 -0.4-0.1-0.7-0.1-1.1-0.1 -0.2 0-0.4 0-0.6 0.1 -0.2 0-0.4 0.1-0.5 0.2 -0.1 0.1-0.3 0.2-0.4 0.4 -0.1 0.1-0.1 0.4-0.1 0.6 0 0.2 0 0.4 0.1 0.5 0.1 0.1 0.2 0.2 0.3 0.3s0.3 0.1 0.4 0.1c0.2 0 0.3 0.1 0.5 0.1 0.2 0 0.4 0 0.6-0.1 0.2-0.1 0.4-0.1 0.6-0.2 0.2-0.1 0.4-0.3 0.5-0.4 0.1-0.2 0.3-0.4 0.3-0.6V160.4z" class="b"/>
  <path d="M170.5 156.7h2.3v0.7H170.5v3.1c0 0.6 0.1 1 0.3 1.2 0.2 0.3 0.5 0.4 0.9 0.4 0.3 0 0.7-0.1 1.2-0.3l0.1 0.8c-0.6 0.2-1.1 0.3-1.6 0.3 -0.6 0-1.1-0.2-1.4-0.6 -0.4-0.4-0.5-1-0.5-1.8v-3.1l-1.3-0.1v-0.7h1.4l0.1-1.9h0.8v1.9H170.5z" class="b"/>
  <path d="M184.8 162.7v0.1h-1.1l-2.5-3.3h-2.4v3.3h-1.1v-9h3.6c0.5 0 0.9 0.1 1.3 0.2 0.4 0.1 0.7 0.4 1 0.6s0.5 0.6 0.6 0.9c0.1 0.4 0.2 0.7 0.2 1.1 0 0.4-0.1 0.7-0.1 1 -0.1 0.3-0.3 0.6-0.4 0.8 -0.2 0.2-0.4 0.4-0.7 0.6 -0.3 0.1-0.6 0.3-0.9 0.4L184.8 162.7zM181.4 158.7c0.3 0 0.6-0.1 0.8-0.1s0.5-0.2 0.6-0.4c0.2-0.2 0.3-0.4 0.4-0.6 0.1-0.2 0.1-0.5 0.1-0.8s-0.1-0.6-0.1-0.8c-0.1-0.2-0.2-0.4-0.4-0.6 -0.2-0.2-0.4-0.3-0.6-0.4 -0.2-0.1-0.5-0.1-0.8-0.1h-2.5v3.9H181.4z" class="b"/>
  <path d="M189 156.6c1.1 0 1.8 0.3 2.3 0.9s0.6 1.4 0.4 2.4h-4.9c0 0.4 0 0.7 0.1 0.9s0.3 0.5 0.5 0.7c0.2 0.2 0.5 0.4 0.8 0.4 0.3 0.1 0.6 0.1 1 0.1 0.4 0 0.7 0 1.1-0.1 0.3-0.1 0.7-0.2 1.1-0.3l0.1 0.8c-0.7 0.4-1.5 0.5-2.3 0.5 -0.5 0-1-0.1-1.4-0.2 -0.4-0.1-0.8-0.4-1.1-0.7 -0.3-0.3-0.5-0.6-0.7-1.1 -0.2-0.4-0.2-0.9-0.2-1.4 0-0.5 0.1-0.9 0.3-1.3 0.2-0.4 0.4-0.7 0.7-0.9 0.3-0.3 0.6-0.5 1-0.6C188.1 156.6 188.5 156.6 189 156.6zM189 157.4c-0.6 0-1 0.1-1.4 0.4 -0.4 0.3-0.6 0.7-0.7 1.3h4c0-0.3 0-0.6-0.1-0.8 -0.1-0.2-0.2-0.4-0.4-0.6 -0.2-0.1-0.4-0.3-0.6-0.3C189.5 157.4 189.2 157.4 189 157.4z" class="b"/>
  <path d="M194.3 157.7c0.3-0.4 0.6-0.7 1-0.9 0.4-0.2 0.8-0.3 1.2-0.3 0.4 0 0.9 0.1 1.2 0.2s0.6 0.4 0.9 0.7c0.2 0.3 0.4 0.6 0.5 1s0.2 0.8 0.2 1.2c0 0.5-0.1 0.9-0.2 1.4 -0.2 0.4-0.4 0.7-0.6 1 -0.3 0.3-0.6 0.5-0.9 0.6s-0.7 0.2-1.1 0.2c-0.3 0-0.6 0-1-0.1 -0.3-0.1-0.6-0.2-1-0.4v3.6h-1v-7.3c0-0.2 0-0.4 0-0.6 0-0.2 0-0.3-0.1-0.4 0-0.1-0.1-0.2-0.2-0.3 -0.1-0.1-0.3-0.1-0.5-0.1v-0.7c0.5-0.1 0.9-0.1 1.2 0.1C194.2 156.9 194.4 157.2 194.3 157.7zM194.4 161.5c0.3 0.2 0.6 0.4 0.9 0.5 0.3 0.1 0.6 0.1 0.9 0.1s0.6-0.1 0.8-0.1c0.3-0.1 0.5-0.3 0.7-0.5 0.2-0.2 0.4-0.4 0.5-0.7s0.2-0.6 0.2-1c0-0.3 0-0.6-0.1-0.9 -0.1-0.3-0.2-0.5-0.4-0.7 -0.2-0.2-0.4-0.4-0.6-0.5 -0.2-0.1-0.5-0.2-0.9-0.2 -0.3 0-0.6 0.1-0.8 0.1 -0.2 0.1-0.4 0.3-0.6 0.4 -0.2 0.2-0.3 0.4-0.4 0.6s-0.1 0.5-0.1 0.8v2H194.4z" class="b"/>
  <path d="M207.1 159.8c0 0.5-0.1 1-0.3 1.4 -0.2 0.4-0.4 0.7-0.7 1 -0.3 0.3-0.6 0.5-1.1 0.6 -0.4 0.1-0.8 0.2-1.2 0.2s-0.8-0.1-1.2-0.2 -0.7-0.4-1-0.6c-0.3-0.3-0.6-0.6-0.7-1 -0.2-0.4-0.3-0.9-0.3-1.4 0-0.5 0.1-1 0.3-1.4 0.2-0.4 0.4-0.7 0.7-1 0.3-0.3 0.6-0.5 1.1-0.6 0.4-0.1 0.8-0.2 1.2-0.2s0.8 0.1 1.2 0.2c0.4 0.1 0.7 0.3 1 0.6 0.3 0.3 0.6 0.6 0.7 1C207 158.8 207.1 159.2 207.1 159.8zM201.6 159.8c0 0.4 0.1 0.7 0.2 1 0.1 0.3 0.3 0.6 0.5 0.7 0.2 0.2 0.4 0.4 0.7 0.4 0.3 0.1 0.6 0.1 0.8 0.1 0.3 0 0.6-0.1 0.8-0.1s0.5-0.3 0.7-0.4c0.2-0.2 0.4-0.4 0.5-0.7s0.2-0.6 0.2-1 -0.1-0.7-0.2-1c-0.1-0.3-0.3-0.5-0.5-0.7 -0.2-0.2-0.4-0.3-0.7-0.4 -0.3-0.1-0.6-0.1-0.8-0.1 -0.3 0-0.6 0.1-0.8 0.1s-0.5 0.2-0.7 0.4 -0.4 0.4-0.5 0.7C201.6 159 201.6 159.4 201.6 159.8z" class="b"/>
  <path d="M209.7 157.6c0.2-0.4 0.4-0.6 0.8-0.8 0.3-0.1 0.7-0.2 1.1-0.2 0.5 0 1 0.1 1.4 0.5l-0.2 0.9c-0.2-0.1-0.4-0.2-0.6-0.3 -0.2-0.1-0.4-0.1-0.7-0.1s-0.4 0-0.6 0.1 -0.4 0.2-0.6 0.3c-0.1 0.1-0.3 0.3-0.4 0.5 -0.1 0.2-0.1 0.4-0.1 0.6v3.8h-1v-4.7c0-0.1 0-0.3 0-0.4s0-0.2-0.1-0.3c-0.1-0.1-0.1-0.1-0.2-0.1 -0.1 0-0.2 0-0.4 0v-0.7c0.2 0 0.5-0.1 0.6-0.1 0.2 0 0.4 0 0.5 0.1 0.1 0.1 0.3 0.1 0.4 0.3C209.7 157.1 209.7 157.3 209.7 157.6z" class="b"/>
  <path d="M215.8 156.7h2.3v0.7h-2.3v3.1c0 0.6 0.1 1 0.3 1.2 0.2 0.3 0.5 0.4 0.9 0.4 0.3 0 0.7-0.1 1.2-0.3l0.1 0.8c-0.6 0.2-1.1 0.3-1.6 0.3 -0.6 0-1.1-0.2-1.4-0.6 -0.4-0.4-0.5-1-0.5-1.8v-3.1l-1.3-0.1v-0.7h1.4l0.1-1.9h0.8v1.9H215.8z" class="b"/>
  <path d="M220.1 161.1c0 0.2 0.1 0.4 0.2 0.5 0.1 0.1 0.2 0.2 0.4 0.3 0.2 0.1 0.4 0.1 0.6 0.2s0.4 0.1 0.6 0.1c0.2 0 0.4 0 0.6-0.1 0.2 0 0.4-0.1 0.6-0.2 0.2-0.1 0.3-0.2 0.4-0.3 0.1-0.1 0.1-0.3 0.2-0.5 0-0.2 0-0.3-0.1-0.4 -0.1-0.1-0.2-0.2-0.3-0.3 -0.1-0.1-0.3-0.1-0.6-0.2 -0.2-0.1-0.5-0.1-0.8-0.1 -0.3 0-0.6-0.1-0.9-0.1 -0.3-0.1-0.6-0.1-0.8-0.3 -0.2-0.1-0.4-0.3-0.6-0.5 -0.1-0.2-0.2-0.5-0.3-0.8 0-0.3 0.1-0.6 0.2-0.8 0.1-0.2 0.4-0.4 0.6-0.6 0.2-0.1 0.5-0.3 0.8-0.3 0.3-0.1 0.6-0.1 0.9-0.1 0.3 0 0.6 0 0.9 0.1 0.3 0.1 0.6 0.2 0.8 0.3s0.4 0.3 0.6 0.6c0.1 0.2 0.2 0.5 0.2 0.8h-1c0-0.2-0.1-0.3-0.1-0.4 -0.1-0.1-0.2-0.2-0.4-0.3 -0.1-0.1-0.3-0.1-0.5-0.2 -0.2 0-0.4-0.1-0.6-0.1 -0.2 0-0.4 0-0.6 0.1s-0.4 0.1-0.5 0.2c-0.1 0.1-0.3 0.2-0.4 0.3 -0.1 0.1-0.1 0.3-0.1 0.5 0 0.3 0.1 0.5 0.4 0.6 0.3 0.1 0.7 0.2 1.3 0.3 0.3 0 0.6 0.1 1 0.1 0.3 0.1 0.6 0.1 0.9 0.3 0.2 0.1 0.4 0.3 0.6 0.5s0.2 0.5 0.2 0.9c0 0.3-0.1 0.6-0.2 0.8 -0.1 0.2-0.4 0.4-0.6 0.6s-0.5 0.3-0.9 0.4c-0.3 0.1-0.7 0.1-1 0.1 -0.3 0-0.6 0-1-0.1s-0.6-0.2-0.9-0.3c-0.3-0.1-0.5-0.3-0.6-0.6 -0.2-0.2-0.3-0.5-0.3-0.9h1V161.1z" class="b"/>
  <path d="M226.6 163c-0.2 0-0.3-0.1-0.5-0.2 -0.1-0.1-0.2-0.3-0.2-0.4 0-0.2 0.1-0.4 0.2-0.4 0.1-0.1 0.3-0.1 0.5-0.1 0.2 0 0.4 0.1 0.5 0.1 0.1 0.1 0.2 0.3 0.2 0.4 0 0.2-0.1 0.3-0.2 0.4C227 162.9 226.9 163 226.6 163z" class="b"/>
  <path d="M232.1 158.4c0-0.7 0.1-1.3 0.4-1.9s0.6-1.1 0.9-1.4c0.4-0.4 0.9-0.7 1.4-0.9 0.5-0.2 1.1-0.3 1.8-0.3 0.4 0 0.9 0.1 1.3 0.1 0.4 0.1 0.8 0.3 1.2 0.5 0.4 0.2 0.7 0.5 0.9 0.8s0.5 0.7 0.6 1.2h-1.1c-0.1-0.3-0.3-0.6-0.5-0.8 -0.2-0.2-0.4-0.4-0.7-0.5 -0.3-0.1-0.5-0.2-0.9-0.3 -0.3-0.1-0.6-0.1-0.9-0.1 -0.5 0-1 0.1-1.4 0.3 -0.4 0.2-0.8 0.4-1.1 0.8 -0.3 0.3-0.5 0.7-0.7 1.1s-0.2 0.9-0.2 1.4c0 0.5 0.1 1 0.2 1.4 0.1 0.4 0.4 0.8 0.7 1.1 0.3 0.3 0.6 0.6 1.1 0.8 0.4 0.2 0.9 0.3 1.4 0.3 0.5 0 0.9-0.1 1.3-0.2s0.7-0.3 1-0.6c0.3-0.2 0.5-0.6 0.7-0.9 0.2-0.4 0.3-0.8 0.3-1.3h-3.2v-0.9h4.2c0 0.6-0.1 1.3-0.2 1.9 -0.2 0.6-0.4 1.1-0.8 1.5s-0.8 0.8-1.4 1.1c-0.6 0.3-1.2 0.4-1.9 0.4 -0.6 0-1.2-0.1-1.8-0.3 -0.6-0.2-1-0.5-1.4-0.9 -0.4-0.4-0.7-0.9-0.9-1.5C232.3 159.7 232.1 159.1 232.1 158.4z" class="b"/>
  <path d="M243.6 157.6c0.2-0.4 0.4-0.6 0.8-0.8 0.3-0.1 0.7-0.2 1.1-0.2 0.5 0 1 0.1 1.4 0.5l-0.2 0.9c-0.2-0.1-0.4-0.2-0.6-0.3 -0.2-0.1-0.4-0.1-0.7-0.1s-0.4 0-0.6 0.1c-0.2 0.1-0.4 0.2-0.6 0.3 -0.1 0.1-0.3 0.3-0.4 0.5 -0.1 0.2-0.1 0.4-0.1 0.6v3.8h-1v-4.7c0-0.1 0-0.3 0-0.4s0-0.2-0.1-0.3c-0.1-0.1-0.1-0.1-0.2-0.1 -0.1 0-0.2 0-0.4 0v-0.7c0.2 0 0.5-0.1 0.6-0.1 0.2 0 0.4 0 0.5 0.1 0.1 0.1 0.3 0.1 0.4 0.3C243.5 157.1 243.6 157.3 243.6 157.6z" class="b"/>
  <path d="M250.8 156.6c1.1 0 1.8 0.3 2.3 0.9 0.5 0.6 0.6 1.4 0.4 2.4h-4.9c0 0.4 0 0.7 0.1 0.9s0.3 0.5 0.5 0.7c0.2 0.2 0.5 0.4 0.8 0.4s0.6 0.1 1 0.1 0.7 0 1.1-0.1c0.3-0.1 0.7-0.2 1.1-0.3l0.1 0.8c-0.7 0.4-1.5 0.5-2.3 0.5 -0.5 0-1-0.1-1.4-0.2 -0.4-0.1-0.8-0.4-1.1-0.7 -0.3-0.3-0.5-0.6-0.7-1.1s-0.2-0.9-0.2-1.4c0-0.5 0.1-0.9 0.3-1.3 0.2-0.4 0.4-0.7 0.7-0.9 0.3-0.3 0.6-0.5 1-0.6C249.9 156.6 250.4 156.6 250.8 156.6zM250.8 157.4c-0.6 0-1 0.1-1.4 0.4s-0.6 0.7-0.7 1.3h4c0-0.3 0-0.6-0.1-0.8 -0.1-0.2-0.2-0.4-0.4-0.6 -0.2-0.1-0.4-0.3-0.6-0.3C251.3 157.4 251.1 157.4 250.8 157.4z" class="b"/>
  <path d="M259.3 161.8c-0.1 0.2-0.3 0.4-0.4 0.6 -0.2 0.1-0.4 0.3-0.6 0.4 -0.2 0.1-0.4 0.2-0.7 0.2C257.3 163 257.1 163 256.8 163c-0.3 0-0.6 0-0.8-0.1s-0.5-0.2-0.7-0.3c-0.2-0.1-0.4-0.3-0.5-0.6s-0.2-0.5-0.2-0.8c0-0.4 0.1-0.6 0.2-0.9s0.3-0.5 0.5-0.6c0.2-0.2 0.5-0.3 0.8-0.4 0.3-0.1 0.6-0.1 0.9-0.1 0.4 0 0.7 0 1.1 0.1 0.4 0.1 0.7 0.2 1 0.4v-0.9c0-0.3-0.1-0.5-0.2-0.6 -0.1-0.2-0.3-0.3-0.5-0.4 -0.2-0.1-0.4-0.1-0.6-0.2 -0.2 0-0.4-0.1-0.6-0.1 -0.4 0-0.7 0-1 0.1 -0.3 0.1-0.6 0.2-0.9 0.4l-0.2-0.8c0.3-0.1 0.6-0.3 1-0.4 0.4-0.1 0.8-0.1 1.2-0.1 0.4 0 0.7 0 1 0.1 0.3 0.1 0.6 0.2 0.9 0.4s0.4 0.4 0.6 0.6c0.1 0.3 0.2 0.6 0.2 1v2.6c0 0.2 0 0.3 0 0.4 0 0.1 0 0.2 0.1 0.3s0.1 0.1 0.2 0.2c0.1 0 0.2 0 0.4 0v0.6c-0.3 0-0.5 0.1-0.7 0.1 -0.2 0-0.4-0.1-0.5-0.1s-0.2-0.2-0.3-0.4C259.3 162.3 259.3 162 259.3 161.8zM259.1 160.4c-0.2-0.1-0.5-0.2-0.8-0.3 -0.4-0.1-0.7-0.1-1.1-0.1 -0.2 0-0.4 0-0.6 0.1 -0.2 0-0.4 0.1-0.5 0.2 -0.1 0.1-0.3 0.2-0.4 0.4 -0.1 0.1-0.1 0.4-0.1 0.6 0 0.2 0 0.4 0.1 0.5 0.1 0.1 0.2 0.2 0.3 0.3 0.1 0.1 0.3 0.1 0.4 0.1s0.3 0.1 0.5 0.1c0.2 0 0.4 0 0.6-0.1 0.2-0.1 0.4-0.1 0.6-0.2 0.2-0.1 0.4-0.3 0.5-0.4 0.1-0.2 0.3-0.4 0.3-0.6V160.4z" class="b"/>
  <path d="M263.7 156.7H266v0.7h-2.3v3.1c0 0.6 0.1 1 0.3 1.2 0.2 0.3 0.5 0.4 0.9 0.4 0.3 0 0.7-0.1 1.2-0.3l0.1 0.8c-0.6 0.2-1.1 0.3-1.6 0.3 -0.6 0-1.1-0.2-1.4-0.6 -0.4-0.4-0.5-1-0.5-1.8v-3.1l-1.3-0.1v-0.7h1.4l0.1-1.9h0.8v1.9H263.7z" class="b"/>
  <path d="M270.5 158.4c0-0.7 0.1-1.3 0.4-1.9 0.2-0.6 0.6-1.1 1-1.5 0.4-0.4 0.9-0.7 1.4-0.9 0.6-0.2 1.1-0.3 1.8-0.3 0.4 0 0.9 0.1 1.3 0.2 0.4 0.1 0.8 0.3 1.1 0.5 0.4 0.2 0.7 0.5 0.9 0.9 0.3 0.4 0.5 0.8 0.6 1.2h-1c-0.3-0.6-0.7-1.1-1.2-1.4 -0.5-0.3-1.1-0.4-1.8-0.4 -0.5 0-1 0.1-1.4 0.3 -0.4 0.2-0.8 0.4-1.1 0.8 -0.3 0.3-0.5 0.7-0.7 1.1 -0.2 0.4-0.3 0.9-0.3 1.4s0.1 1 0.2 1.4c0.2 0.4 0.4 0.8 0.7 1.1 0.3 0.3 0.7 0.6 1.1 0.8 0.4 0.2 0.9 0.3 1.4 0.3 0.7 0 1.3-0.2 1.9-0.5 0.5-0.3 0.9-0.8 1.2-1.5h1c-0.1 0.5-0.3 0.9-0.6 1.3 -0.3 0.4-0.6 0.7-0.9 0.9 -0.4 0.2-0.8 0.4-1.2 0.6 -0.4 0.1-0.9 0.2-1.3 0.2 -0.6 0-1.2-0.1-1.8-0.3 -0.6-0.2-1-0.5-1.4-0.9 -0.4-0.4-0.7-0.9-1-1.4C270.6 159.7 270.5 159.1 270.5 158.4z" class="b"/>
  <path d="M286.7 159.8c0 0.5-0.1 1-0.3 1.4 -0.2 0.4-0.4 0.7-0.7 1 -0.3 0.3-0.6 0.5-1.1 0.6 -0.4 0.1-0.8 0.2-1.2 0.2 -0.4 0-0.8-0.1-1.2-0.2s-0.7-0.4-1-0.6c-0.3-0.3-0.6-0.6-0.7-1 -0.2-0.4-0.3-0.9-0.3-1.4 0-0.5 0.1-1 0.3-1.4 0.2-0.4 0.4-0.7 0.7-1 0.3-0.3 0.6-0.5 1.1-0.6 0.4-0.1 0.8-0.2 1.2-0.2s0.8 0.1 1.2 0.2 0.7 0.3 1 0.6c0.3 0.3 0.6 0.6 0.7 1C286.6 158.8 286.7 159.2 286.7 159.8zM281.2 159.8c0 0.4 0.1 0.7 0.2 1 0.1 0.3 0.3 0.6 0.5 0.7 0.2 0.2 0.4 0.4 0.7 0.4 0.3 0.1 0.6 0.1 0.8 0.1 0.3 0 0.6-0.1 0.8-0.1s0.5-0.3 0.7-0.4c0.2-0.2 0.4-0.4 0.5-0.7s0.2-0.6 0.2-1 -0.1-0.7-0.2-1c-0.1-0.3-0.3-0.5-0.5-0.7s-0.4-0.3-0.7-0.4c-0.3-0.1-0.6-0.1-0.8-0.1 -0.3 0-0.6 0.1-0.8 0.1s-0.5 0.2-0.7 0.4c-0.2 0.2-0.4 0.4-0.5 0.7C281.3 159 281.2 159.4 281.2 159.8z" class="b"/>
  <path d="M293 162.9v-3.6c0-0.6-0.1-1-0.5-1.3 -0.3-0.3-0.7-0.5-1.3-0.5 -0.3 0-0.5 0-0.7 0.1 -0.2 0.1-0.4 0.2-0.6 0.4 -0.2 0.1-0.3 0.4-0.4 0.6 -0.1 0.2-0.1 0.4-0.1 0.7v3.7h-1v-4.4c0-0.2 0-0.4 0-0.5 0-0.1-0.1-0.2-0.1-0.3 -0.1-0.1-0.1-0.1-0.2-0.1s-0.2 0-0.4 0v-0.8c0.2 0 0.4-0.1 0.6-0.1 0.2 0 0.4 0 0.5 0.1 0.2 0.1 0.3 0.1 0.4 0.3s0.1 0.4 0.1 0.7c0.3-0.4 0.6-0.7 1-0.8 0.4-0.1 0.8-0.2 1.2-0.2 0.4 0 0.8 0.1 1.1 0.2 0.3 0.1 0.6 0.3 0.8 0.6 0.2 0.2 0.4 0.5 0.5 0.9s0.1 0.7 0.1 1.1v3.6h-1V162.9z" class="b"/>
  <path d="M298.1 162.9l-2.9-6.1v-0.1h1.1l1.1 2.3 1 2.4 1-2.4 1-2.3h1.1v0.1l-2.9 6.1H298.1L298.1 162.9z" class="b"/>
  <path d="M305.5 156.6c1.1 0 1.8 0.3 2.3 0.9 0.5 0.6 0.6 1.4 0.4 2.4h-4.9c0 0.4 0 0.7 0.1 0.9s0.3 0.5 0.5 0.7c0.2 0.2 0.5 0.4 0.8 0.4 0.3 0.1 0.6 0.1 1 0.1 0.4 0 0.7 0 1.1-0.1 0.3-0.1 0.7-0.2 1.1-0.3l0.1 0.8c-0.7 0.4-1.5 0.5-2.3 0.5 -0.5 0-1-0.1-1.4-0.2s-0.8-0.4-1.1-0.7c-0.3-0.3-0.5-0.6-0.7-1.1 -0.2-0.4-0.2-0.9-0.2-1.4 0-0.5 0.1-0.9 0.3-1.3s0.4-0.7 0.7-0.9c0.3-0.3 0.6-0.5 1-0.6C304.7 156.6 305.1 156.6 305.5 156.6zM305.5 157.4c-0.6 0-1 0.1-1.4 0.4 -0.4 0.3-0.6 0.7-0.7 1.3h4c0-0.3 0-0.6-0.1-0.8 -0.1-0.2-0.2-0.4-0.4-0.6 -0.2-0.1-0.4-0.3-0.6-0.3C306.1 157.4 305.8 157.4 305.5 157.4z" class="b"/>
  <path d="M314.6 162.9v-3.6c0-0.6-0.1-1-0.5-1.3 -0.3-0.3-0.7-0.5-1.3-0.5 -0.3 0-0.5 0-0.7 0.1 -0.2 0.1-0.4 0.2-0.6 0.4 -0.2 0.1-0.3 0.4-0.4 0.6 -0.1 0.2-0.1 0.4-0.1 0.7v3.7h-1v-4.4c0-0.2 0-0.4 0-0.5 0-0.1-0.1-0.2-0.1-0.3 -0.1-0.1-0.1-0.1-0.2-0.1s-0.2 0-0.4 0v-0.8c0.2 0 0.4-0.1 0.6-0.1 0.2 0 0.4 0 0.5 0.1 0.2 0.1 0.3 0.1 0.4 0.3 0.1 0.1 0.1 0.4 0.1 0.7 0.3-0.4 0.6-0.7 1-0.8 0.4-0.1 0.8-0.2 1.2-0.2 0.4 0 0.8 0.1 1.1 0.2 0.3 0.1 0.6 0.3 0.8 0.6 0.2 0.2 0.4 0.5 0.5 0.9s0.1 0.7 0.1 1.1v3.6h-1V162.9z" class="b"/>
  <path d="M317.4 154.6c0-0.2 0.1-0.4 0.2-0.5 0.1-0.1 0.3-0.1 0.4-0.1 0.2 0 0.3 0.1 0.4 0.1 0.1 0.1 0.2 0.3 0.2 0.5 0 0.2-0.1 0.4-0.2 0.5 -0.1 0.1-0.3 0.1-0.4 0.1 -0.2 0-0.3-0.1-0.4-0.1C317.5 155 317.4 154.9 317.4 154.6zM318.6 162.9h-1v-6.2h1V162.9z" class="b"/>
  <path d="M323.3 156.6c1.1 0 1.8 0.3 2.3 0.9s0.6 1.4 0.4 2.4h-4.9c0 0.4 0 0.7 0.1 0.9s0.3 0.5 0.5 0.7c0.2 0.2 0.5 0.4 0.8 0.4 0.3 0.1 0.6 0.1 1 0.1 0.4 0 0.7 0 1.1-0.1 0.3-0.1 0.7-0.2 1.1-0.3l0.1 0.8c-0.7 0.4-1.5 0.5-2.3 0.5 -0.5 0-1-0.1-1.4-0.2 -0.4-0.1-0.8-0.4-1.1-0.7 -0.3-0.3-0.5-0.6-0.7-1.1 -0.2-0.4-0.2-0.9-0.2-1.4 0-0.5 0.1-0.9 0.3-1.3 0.2-0.4 0.4-0.7 0.7-0.9 0.3-0.3 0.6-0.5 1-0.6C322.5 156.6 322.9 156.6 323.3 156.6zM323.3 157.4c-0.6 0-1 0.1-1.4 0.4 -0.4 0.3-0.6 0.7-0.7 1.3h4c0-0.3 0-0.6-0.1-0.8 -0.1-0.2-0.2-0.4-0.4-0.6 -0.2-0.1-0.4-0.3-0.6-0.3C323.8 157.4 323.6 157.4 323.3 157.4z" class="b"/>
  <path d="M332.4 162.9v-3.6c0-0.6-0.1-1-0.5-1.3 -0.3-0.3-0.7-0.5-1.3-0.5 -0.3 0-0.5 0-0.7 0.1 -0.2 0.1-0.4 0.2-0.6 0.4 -0.2 0.1-0.3 0.4-0.4 0.6s-0.1 0.4-0.1 0.7v3.7h-1v-4.4c0-0.2 0-0.4 0-0.5 0-0.1-0.1-0.2-0.1-0.3 -0.1-0.1-0.1-0.1-0.2-0.1s-0.2 0-0.4 0v-0.8c0.2 0 0.4-0.1 0.6-0.1 0.2 0 0.4 0 0.5 0.1 0.2 0.1 0.3 0.1 0.4 0.3 0.1 0.1 0.1 0.4 0.1 0.7 0.3-0.4 0.6-0.7 1-0.8 0.4-0.1 0.8-0.2 1.2-0.2 0.4 0 0.8 0.1 1.1 0.2 0.3 0.1 0.6 0.3 0.8 0.6 0.2 0.2 0.4 0.5 0.5 0.9s0.1 0.7 0.1 1.1v3.6h-1V162.9z" class="b"/>
  <path d="M340.1 158.6c-0.2-0.4-0.4-0.7-0.8-0.9 -0.3-0.2-0.7-0.3-1.1-0.3 -0.3 0-0.6 0.1-0.9 0.1 -0.3 0.1-0.5 0.2-0.7 0.4 -0.2 0.2-0.4 0.4-0.5 0.7 -0.1 0.3-0.2 0.6-0.2 1s0.1 0.7 0.2 1c0.1 0.3 0.3 0.5 0.5 0.7 0.2 0.2 0.4 0.4 0.7 0.4 0.3 0.1 0.6 0.1 0.8 0.1 0.4 0 0.8-0.1 1.1-0.3s0.6-0.5 0.8-1h1c-0.1 0.4-0.2 0.7-0.4 1 -0.2 0.3-0.4 0.5-0.7 0.7 -0.3 0.2-0.6 0.3-0.9 0.4 -0.3 0.1-0.6 0.1-0.9 0.1 -0.4 0-0.8-0.1-1.2-0.2s-0.7-0.4-1.1-0.6c-0.3-0.3-0.6-0.6-0.7-1 -0.2-0.4-0.3-0.9-0.3-1.4s0.1-1 0.3-1.4c0.2-0.4 0.4-0.7 0.8-1 0.3-0.3 0.6-0.4 1.1-0.6 0.4-0.1 0.8-0.2 1.2-0.2 0.3 0 0.6 0.1 0.9 0.1 0.3 0.1 0.6 0.2 0.8 0.4 0.3 0.2 0.5 0.4 0.7 0.6 0.2 0.3 0.3 0.6 0.4 0.9h-0.9V158.6z" class="b"/>
  <path d="M345.3 156.6c1.1 0 1.8 0.3 2.3 0.9s0.6 1.4 0.4 2.4h-4.9c0 0.4 0 0.7 0.1 0.9 0.1 0.3 0.3 0.5 0.5 0.7 0.2 0.2 0.5 0.4 0.8 0.4 0.3 0.1 0.6 0.1 1 0.1 0.4 0 0.7 0 1.1-0.1 0.3-0.1 0.7-0.2 1.1-0.3l0.1 0.8c-0.7 0.4-1.5 0.5-2.3 0.5 -0.5 0-1-0.1-1.4-0.2 -0.4-0.1-0.8-0.4-1.1-0.7 -0.3-0.3-0.5-0.6-0.7-1.1 -0.2-0.4-0.2-0.9-0.2-1.4 0-0.5 0.1-0.9 0.3-1.3s0.4-0.7 0.7-0.9c0.3-0.3 0.6-0.5 1-0.6C344.5 156.6 344.9 156.6 345.3 156.6zM345.3 157.4c-0.6 0-1 0.1-1.4 0.4 -0.4 0.3-0.6 0.7-0.7 1.3h4c0-0.3 0-0.6-0.1-0.8 -0.1-0.2-0.2-0.4-0.4-0.6s-0.4-0.3-0.6-0.3C345.9 157.4 345.6 157.4 345.3 157.4z" class="b"/>
  <path d="M350.2 163c-0.2 0-0.3-0.1-0.5-0.2 -0.1-0.1-0.2-0.3-0.2-0.4 0-0.2 0.1-0.4 0.2-0.4 0.1-0.1 0.3-0.1 0.5-0.1s0.4 0.1 0.5 0.1c0.1 0.1 0.2 0.3 0.2 0.4 0 0.2-0.1 0.3-0.2 0.4S350.4 163 350.2 163z" class="b"/>
  <path d="M355.7 158.4c0-0.7 0.1-1.3 0.4-1.9 0.2-0.6 0.6-1.1 0.9-1.4 0.4-0.4 0.9-0.7 1.4-0.9 0.5-0.2 1.1-0.3 1.8-0.3 0.4 0 0.9 0.1 1.3 0.1 0.4 0.1 0.8 0.3 1.2 0.5 0.4 0.2 0.7 0.5 0.9 0.8 0.3 0.3 0.5 0.7 0.6 1.2h-1.1c-0.1-0.3-0.3-0.6-0.5-0.8 -0.2-0.2-0.4-0.4-0.7-0.5 -0.3-0.1-0.5-0.2-0.9-0.3 -0.3-0.1-0.6-0.1-0.9-0.1 -0.5 0-1 0.1-1.4 0.3 -0.4 0.2-0.8 0.4-1.1 0.8s-0.5 0.7-0.7 1.1c-0.1 0.4-0.2 0.9-0.2 1.4 0 0.5 0.1 1 0.2 1.4 0.1 0.4 0.4 0.8 0.7 1.1 0.3 0.3 0.6 0.6 1.1 0.8 0.4 0.2 0.9 0.3 1.4 0.3 0.5 0 0.9-0.1 1.3-0.2s0.7-0.3 1-0.6c0.3-0.2 0.5-0.6 0.7-0.9 0.2-0.4 0.3-0.8 0.3-1.3h-3.2v-0.9h4.2c0 0.6-0.1 1.3-0.2 1.9 -0.2 0.6-0.4 1.1-0.8 1.5s-0.8 0.8-1.4 1.1 -1.2 0.4-1.9 0.4c-0.6 0-1.2-0.1-1.8-0.3 -0.6-0.2-1-0.5-1.4-0.9 -0.4-0.4-0.7-0.9-0.9-1.5C355.8 159.7 355.7 159.1 355.7 158.4z" class="b"/>
  <path d="M367.1 157.6c0.2-0.4 0.4-0.6 0.8-0.8 0.3-0.1 0.7-0.2 1.1-0.2 0.5 0 1 0.1 1.4 0.5l-0.2 0.9c-0.2-0.1-0.4-0.2-0.6-0.3 -0.2-0.1-0.4-0.1-0.7-0.1 -0.2 0-0.4 0-0.6 0.1s-0.4 0.2-0.6 0.3c-0.1 0.1-0.3 0.3-0.4 0.5 -0.1 0.2-0.1 0.4-0.1 0.6v3.8h-1v-4.7c0-0.1 0-0.3 0-0.4s0-0.2-0.1-0.3c-0.1-0.1-0.1-0.1-0.2-0.1 -0.1 0-0.2 0-0.4 0v-0.7c0.2 0 0.5-0.1 0.6-0.1 0.2 0 0.4 0 0.5 0.1 0.1 0.1 0.3 0.1 0.4 0.3S367.1 157.3 367.1 157.6z" class="b"/>
  <path d="M374.4 156.6c1.1 0 1.8 0.3 2.3 0.9s0.6 1.4 0.4 2.4h-4.9c0 0.4 0 0.7 0.1 0.9 0.1 0.3 0.3 0.5 0.5 0.7 0.2 0.2 0.5 0.4 0.8 0.4 0.3 0.1 0.6 0.1 1 0.1 0.4 0 0.7 0 1.1-0.1 0.3-0.1 0.7-0.2 1.1-0.3l0.1 0.8c-0.7 0.4-1.5 0.5-2.3 0.5 -0.5 0-1-0.1-1.4-0.2 -0.4-0.1-0.8-0.4-1.1-0.7 -0.3-0.3-0.5-0.6-0.7-1.1 -0.2-0.4-0.2-0.9-0.2-1.4 0-0.5 0.1-0.9 0.3-1.3 0.2-0.4 0.4-0.7 0.7-0.9 0.3-0.3 0.6-0.5 1-0.6C373.5 156.6 373.9 156.6 374.4 156.6zM374.4 157.4c-0.6 0-1 0.1-1.4 0.4s-0.6 0.7-0.7 1.3h4c0-0.3 0-0.6-0.1-0.8 -0.1-0.2-0.2-0.4-0.4-0.6s-0.4-0.3-0.6-0.3C374.9 157.4 374.6 157.4 374.4 157.4z" class="b"/>
  <path d="M382.8 161.8c-0.1 0.2-0.3 0.4-0.4 0.6 -0.2 0.1-0.4 0.3-0.6 0.4 -0.2 0.1-0.4 0.2-0.7 0.2C380.9 163 380.6 163 380.4 163c-0.3 0-0.6 0-0.8-0.1 -0.3-0.1-0.5-0.2-0.7-0.3 -0.2-0.1-0.4-0.3-0.5-0.6 -0.1-0.2-0.2-0.5-0.2-0.8 0-0.4 0.1-0.6 0.2-0.9 0.1-0.3 0.3-0.5 0.5-0.6 0.2-0.2 0.5-0.3 0.8-0.4 0.3-0.1 0.6-0.1 0.9-0.1 0.4 0 0.7 0 1.1 0.1 0.4 0.1 0.7 0.2 1 0.4v-0.9c0-0.3-0.1-0.5-0.2-0.6 -0.1-0.2-0.3-0.3-0.5-0.4 -0.2-0.1-0.4-0.1-0.6-0.2 -0.2 0-0.4-0.1-0.6-0.1 -0.4 0-0.7 0-1 0.1 -0.3 0.1-0.6 0.2-0.9 0.4l-0.2-0.8c0.3-0.1 0.6-0.3 1-0.4 0.4-0.1 0.8-0.1 1.2-0.1 0.4 0 0.7 0 1 0.1 0.3 0.1 0.6 0.2 0.9 0.4 0.3 0.2 0.4 0.4 0.6 0.6 0.1 0.3 0.2 0.6 0.2 1v2.6c0 0.2 0 0.3 0 0.4 0 0.1 0 0.2 0.1 0.3 0 0.1 0.1 0.1 0.2 0.2 0.1 0 0.2 0 0.4 0v0.6c-0.3 0-0.5 0.1-0.7 0.1 -0.2 0-0.4-0.1-0.5-0.1s-0.2-0.2-0.3-0.4C382.9 162.3 382.8 162 382.8 161.8zM382.7 160.4c-0.2-0.1-0.5-0.2-0.8-0.3 -0.4-0.1-0.7-0.1-1.1-0.1 -0.2 0-0.4 0-0.6 0.1s-0.4 0.1-0.5 0.2c-0.1 0.1-0.3 0.2-0.4 0.4 -0.1 0.1-0.1 0.4-0.1 0.6 0 0.2 0 0.4 0.1 0.5 0.1 0.1 0.2 0.2 0.3 0.3 0.1 0.1 0.3 0.1 0.4 0.1 0.2 0 0.3 0.1 0.5 0.1 0.2 0 0.4 0 0.6-0.1 0.2-0.1 0.4-0.1 0.6-0.2 0.2-0.1 0.4-0.3 0.5-0.4 0.1-0.2 0.3-0.4 0.3-0.6V160.4z" class="b"/>
  <path d="M387.3 156.7h2.3v0.7h-2.3v3.1c0 0.6 0.1 1 0.3 1.2 0.2 0.3 0.5 0.4 0.9 0.4 0.3 0 0.7-0.1 1.2-0.3l0.1 0.8c-0.6 0.2-1.1 0.3-1.6 0.3 -0.6 0-1.1-0.2-1.4-0.6 -0.4-0.4-0.5-1-0.5-1.8v-3.1l-1.3-0.1v-0.7h1.4l0.1-1.9h0.8v1.9H387.3z" class="b"/>
  <path d="M393.6 154.9v-1h6.6v1h-2.8v8h-1.1v-8H393.6z" class="b"/>
  <path d="M404.2 156.6c1.1 0 1.8 0.3 2.3 0.9s0.6 1.4 0.4 2.4h-4.9c0 0.4 0 0.7 0.1 0.9 0.1 0.3 0.3 0.5 0.5 0.7 0.2 0.2 0.5 0.4 0.8 0.4s0.6 0.1 1 0.1c0.4 0 0.7 0 1.1-0.1 0.3-0.1 0.7-0.2 1.1-0.3l0.1 0.8c-0.7 0.4-1.5 0.5-2.3 0.5 -0.5 0-1-0.1-1.4-0.2 -0.4-0.1-0.8-0.4-1.1-0.7 -0.3-0.3-0.5-0.6-0.7-1.1s-0.2-0.9-0.2-1.4c0-0.5 0.1-0.9 0.3-1.3 0.2-0.4 0.4-0.7 0.7-0.9 0.3-0.3 0.6-0.5 1-0.6C403.4 156.6 403.8 156.6 404.2 156.6zM404.2 157.4c-0.6 0-1 0.1-1.4 0.4 -0.4 0.3-0.6 0.7-0.7 1.3h4c0-0.3 0-0.6-0.1-0.8 -0.1-0.2-0.2-0.4-0.4-0.6 -0.2-0.1-0.4-0.3-0.6-0.3C404.7 157.4 404.5 157.4 404.2 157.4z" class="b"/>
  <path d="M413.3 162.9v-3.6c0-0.6-0.1-1-0.5-1.3 -0.3-0.3-0.7-0.5-1.3-0.5 -0.3 0-0.5 0-0.7 0.1s-0.4 0.2-0.6 0.4c-0.2 0.1-0.3 0.4-0.4 0.6 -0.1 0.2-0.1 0.4-0.1 0.7v3.7h-1v-4.4c0-0.2 0-0.4 0-0.5 0-0.1-0.1-0.2-0.1-0.3 -0.1-0.1-0.1-0.1-0.2-0.1 -0.1 0-0.2 0-0.4 0v-0.8c0.2 0 0.4-0.1 0.6-0.1 0.2 0 0.4 0 0.5 0.1 0.2 0.1 0.3 0.1 0.4 0.3 0.1 0.1 0.1 0.4 0.1 0.7 0.3-0.4 0.6-0.7 1-0.8 0.4-0.1 0.8-0.2 1.2-0.2 0.4 0 0.8 0.1 1.1 0.2 0.3 0.1 0.6 0.3 0.8 0.6 0.2 0.2 0.4 0.5 0.5 0.9 0.1 0.3 0.1 0.7 0.1 1.1v3.6h-1V162.9z" class="b"/>
  <path d="M420.4 161.8c-0.1 0.2-0.3 0.4-0.4 0.6 -0.2 0.1-0.4 0.3-0.6 0.4 -0.2 0.1-0.4 0.2-0.7 0.2 -0.2 0.1-0.5 0.1-0.7 0.1 -0.3 0-0.6 0-0.8-0.1s-0.5-0.2-0.7-0.3c-0.2-0.1-0.4-0.3-0.5-0.6 -0.1-0.2-0.2-0.5-0.2-0.8 0-0.4 0.1-0.6 0.2-0.9 0.1-0.3 0.3-0.5 0.5-0.6 0.2-0.2 0.5-0.3 0.8-0.4 0.3-0.1 0.6-0.1 0.9-0.1 0.4 0 0.7 0 1.1 0.1 0.4 0.1 0.7 0.2 1 0.4v-0.9c0-0.3-0.1-0.5-0.2-0.6 -0.1-0.2-0.3-0.3-0.5-0.4 -0.2-0.1-0.4-0.1-0.6-0.2 -0.2 0-0.4-0.1-0.6-0.1 -0.4 0-0.7 0-1 0.1s-0.6 0.2-0.9 0.4l-0.2-0.8c0.3-0.1 0.6-0.3 1-0.4 0.4-0.1 0.8-0.1 1.2-0.1 0.4 0 0.7 0 1 0.1 0.3 0.1 0.6 0.2 0.9 0.4 0.3 0.2 0.4 0.4 0.6 0.6 0.1 0.3 0.2 0.6 0.2 1v2.6c0 0.2 0 0.3 0 0.4 0 0.1 0 0.2 0.1 0.3s0.1 0.1 0.2 0.2c0.1 0 0.2 0 0.4 0v0.6c-0.3 0-0.5 0.1-0.7 0.1 -0.2 0-0.4-0.1-0.5-0.1 -0.1-0.1-0.2-0.2-0.3-0.4C420.4 162.3 420.4 162 420.4 161.8zM420.2 160.4c-0.2-0.1-0.5-0.2-0.8-0.3 -0.4-0.1-0.7-0.1-1.1-0.1 -0.2 0-0.4 0-0.6 0.1s-0.4 0.1-0.5 0.2c-0.1 0.1-0.3 0.2-0.4 0.4 -0.1 0.1-0.1 0.4-0.1 0.6 0 0.2 0 0.4 0.1 0.5 0.1 0.1 0.2 0.2 0.3 0.3 0.1 0.1 0.3 0.1 0.4 0.1 0.2 0 0.3 0.1 0.5 0.1 0.2 0 0.4 0 0.6-0.1 0.2-0.1 0.4-0.1 0.6-0.2 0.2-0.1 0.4-0.3 0.5-0.4 0.1-0.2 0.3-0.4 0.3-0.6V160.4z" class="b"/>
  <path d="M428 162.9v-3.6c0-0.6-0.1-1-0.5-1.3 -0.3-0.3-0.7-0.5-1.3-0.5 -0.3 0-0.5 0-0.7 0.1s-0.4 0.2-0.6 0.4c-0.2 0.1-0.3 0.4-0.4 0.6s-0.1 0.4-0.1 0.7v3.7h-1v-4.4c0-0.2 0-0.4 0-0.5 0-0.1-0.1-0.2-0.1-0.3 -0.1-0.1-0.1-0.1-0.2-0.1 -0.1 0-0.2 0-0.4 0v-0.8c0.2 0 0.4-0.1 0.6-0.1 0.2 0 0.4 0 0.5 0.1 0.2 0.1 0.3 0.1 0.4 0.3 0.1 0.1 0.1 0.4 0.1 0.7 0.3-0.4 0.6-0.7 1-0.8 0.4-0.1 0.8-0.2 1.2-0.2 0.4 0 0.8 0.1 1.1 0.2 0.3 0.1 0.6 0.3 0.8 0.6 0.2 0.2 0.4 0.5 0.5 0.9 0.1 0.3 0.1 0.7 0.1 1.1v3.6h-1V162.9z" class="b"/>
  <path d="M432.5 156.7h2.3v0.7H432.5v3.1c0 0.6 0.1 1 0.3 1.2 0.2 0.3 0.5 0.4 0.9 0.4 0.3 0 0.7-0.1 1.2-0.3l0.1 0.8c-0.6 0.2-1.1 0.3-1.6 0.3 -0.6 0-1.1-0.2-1.4-0.6 -0.4-0.4-0.5-1-0.5-1.8v-3.1l-1.3-0.1v-0.7h1.4l0.1-1.9h0.8v1.9H432.5z" class="b"/>
  <path d="M436.8 161.1c0 0.2 0.1 0.4 0.2 0.5 0.1 0.1 0.2 0.2 0.4 0.3 0.2 0.1 0.4 0.1 0.6 0.2 0.2 0 0.4 0.1 0.6 0.1s0.4 0 0.6-0.1c0.2 0 0.4-0.1 0.6-0.2s0.3-0.2 0.4-0.3c0.1-0.1 0.1-0.3 0.2-0.5 0-0.2 0-0.3-0.1-0.4 -0.1-0.1-0.2-0.2-0.3-0.3 -0.1-0.1-0.3-0.1-0.6-0.2 -0.2-0.1-0.5-0.1-0.8-0.1 -0.3 0-0.6-0.1-0.9-0.1 -0.3-0.1-0.6-0.1-0.8-0.3 -0.2-0.1-0.4-0.3-0.6-0.5 -0.1-0.2-0.2-0.5-0.3-0.8 0-0.3 0.1-0.6 0.2-0.8 0.1-0.2 0.4-0.4 0.6-0.6s0.5-0.3 0.8-0.3c0.3-0.1 0.6-0.1 0.9-0.1s0.6 0 0.9 0.1c0.3 0.1 0.6 0.2 0.8 0.3s0.4 0.3 0.6 0.6c0.1 0.2 0.2 0.5 0.2 0.8h-1c0-0.2-0.1-0.3-0.1-0.4 -0.1-0.1-0.2-0.2-0.4-0.3 -0.1-0.1-0.3-0.1-0.5-0.2 -0.2 0-0.4-0.1-0.6-0.1s-0.4 0-0.6 0.1c-0.2 0-0.4 0.1-0.5 0.2 -0.1 0.1-0.3 0.2-0.4 0.3 -0.1 0.1-0.1 0.3-0.1 0.5 0 0.3 0.1 0.5 0.4 0.6s0.7 0.2 1.3 0.3c0.3 0 0.6 0.1 1 0.1 0.3 0.1 0.6 0.1 0.9 0.3 0.2 0.1 0.4 0.3 0.6 0.5s0.2 0.5 0.2 0.9c0 0.3-0.1 0.6-0.2 0.8 -0.1 0.2-0.4 0.4-0.6 0.6s-0.5 0.3-0.9 0.4c-0.3 0.1-0.7 0.1-1 0.1 -0.3 0-0.6 0-1-0.1s-0.6-0.2-0.9-0.3c-0.3-0.1-0.5-0.3-0.6-0.6 -0.2-0.2-0.3-0.5-0.3-0.9h1V161.1z" class="b"/>
  <path d="M443.3 163c-0.2 0-0.3-0.1-0.5-0.2 -0.1-0.1-0.2-0.3-0.2-0.4 0-0.2 0.1-0.4 0.2-0.4 0.1-0.1 0.3-0.1 0.5-0.1 0.2 0 0.4 0.1 0.5 0.1 0.1 0.1 0.2 0.3 0.2 0.4 0 0.2-0.1 0.3-0.2 0.4C443.7 162.9 443.5 163 443.3 163z" class="b"/>
  <path d="M444.3 153.8v-0.8h3.1v0.8h-1.1v3.4h-0.9v-3.4H444.3z" class="b"/>
  <path d="M451.6 153h0.3v4.1H451v-2.2l-1 1.3h-0.1l-1-1.3v2.2h-0.9v-4.1h0.3l1.7 2L451.6 153z" class="b"/>
</svg>
