<?xml version="1.0" encoding="UTF-8"?>
<!DOCTYPE svg PUBLIC "-//W3C//DTD SVG 1.1//EN" "http://www.w3.org/Graphics/SVG/1.1/DTD/svg11.dtd">
<!-- Creator: CorelDRAW X7 -->
<svg xmlns="http://www.w3.org/2000/svg" xml:space="preserve" width="17.9232mm" height="17.9232mm" version="1.1" style="shape-rendering:geometricPrecision; text-rendering:geometricPrecision; image-rendering:optimizeQuality; fill-rule:evenodd; clip-rule:evenodd"
viewBox="0 0 325 325"
 xmlns:xlink="http://www.w3.org/1999/xlink">
 <defs>
  <style type="text/css">
   <![CDATA[
    .fil0 {fill:none}
    .fil1 {fill:#757575;fill-rule:nonzero}
   ]]>
  </style>
 </defs>
 <g id="Layer_x0020_1">
  <metadata id="CorelCorpID_0Corel-Layer"/>
  <rect class="fil0" width="325" height="325"/>
  <g id="_2071410383248">
   <path class="fil1" d="M142 225c0,-1 2,-2 3,-2 1,1 2,2 2,3 -3,13 -10,21 -17,25l0 0c-4,1 -8,2 -12,1 -4,0 -7,-2 -10,-5 -7,-5 -11,-15 -11,-29l2 -122c-2,-9 -5,-15 -9,-18 -3,-2 -6,-3 -9,-3 -3,0 -6,1 -9,3 -6,3 -10,10 -13,18 0,1 -2,2 -3,1 -2,0 -2,-1 -2,-3 3,-9 9,-16 15,-21 4,-2 8,-3 12,-3 4,0 9,1 12,4 5,4 9,11 11,21l1 0 -2 123 0 0c-1,12 3,21 8,25 3,2 5,4 8,4 3,1 6,0 8,-1l0 0c6,-3 12,-10 15,-21z"/>
   <path class="fil1" d="M230 254c-1,0 -3,-1 -3,-3 0,-1 1,-3 3,-3 7,0 13,-1 18,-5 4,-3 8,-9 10,-18 1,-1 2,-2 4,-2 1,1 2,2 2,3 -3,11 -7,17 -13,22 -6,4 -13,6 -21,6z"/>
   <path class="fil1" d="M83 75c-1,0 -3,-1 -3,-3 0,-1 2,-2 3,-2l114 0c17,-2 23,15 24,34 1,12 0,27 -1,37l0 0c0,4 0,8 0,10 0,1 -2,3 -3,3 -2,-1 -3,-2 -3,-3 0,-3 0,-6 1,-10 1,-11 2,-25 1,-37 -2,-16 -6,-30 -19,-29l0 0 -114 0z"/>
   <path class="fil1" d="M102 93c2,0 3,1 2,3 0,1 -1,2 -3,2 -7,-2 -14,-2 -22,-2 -7,0 -14,0 -22,2 -1,0 -3,-1 -3,-3 0,-1 1,-3 2,-3 8,-1 16,-2 23,-2 8,0 16,1 23,3z"/>
   <path class="fil1" d="M172 223c1,0 3,1 3,3 0,1 -2,2 -3,2l-28 0c-1,0 -2,-1 -2,-2 0,-2 1,-3 2,-3l28 0z"/>
   <path class="fil1" d="M261 223c2,0 3,1 3,3 0,1 -1,2 -3,2l-20 0c-2,0 -3,-1 -3,-2 0,-2 1,-3 3,-3l20 0z"/>
   <path class="fil1" d="M182 248c2,0 3,2 3,3 0,2 -2,3 -3,3l-61 -1c-1,0 -3,-2 -3,-3 0,-2 2,-3 3,-3l61 1z"/>
   <path class="fil1" d="M123 104c-2,0 -3,-1 -3,-3 0,-2 1,-4 3,-4l70 0c2,0 4,2 4,4 0,2 -2,3 -4,3l-70 0z"/>
   <path class="fil1" d="M123 134c-2,0 -3,-2 -3,-4 0,-2 1,-4 3,-4l70 0c2,0 4,2 4,4 0,2 -2,3 -4,3l-70 1z"/>
   <path class="fil1" d="M123 157c-2,0 -3,-1 -3,-3 0,-2 1,-4 3,-4l70 0c2,0 4,2 4,4 0,2 -2,3 -4,3l-70 0z"/>
   <path class="fil1" d="M123 182c-2,0 -3,-1 -3,-3 0,-2 1,-4 3,-4l70 0c2,0 4,2 4,4 0,2 -2,3 -4,3l-70 0z"/>
   <path class="fil1" d="M232 204l12 24 0 0c0,0 1,1 1,2 0,1 0,2 0,2l0 9c0,4 -2,7 -4,9 -3,2 -7,4 -11,4l-24 0 -24 0c-4,0 -8,-2 -11,-4 -2,-2 -4,-5 -4,-9l0 -9c0,0 0,-1 0,-2 0,-1 0,-2 1,-2l0 0 12 -24c-1,-1 -1,-1 -2,-1 -1,-1 -2,-3 -2,-4l0 -2c0,-2 1,-3 2,-4 1,-1 3,-2 4,-2l48 0c1,0 3,1 4,2 1,1 2,2 2,4l0 2c0,1 -1,3 -2,4 -1,0 -1,0 -2,1zm7 26l-13 -26c0,-1 0,-1 0,-2 0,-1 0,-1 1,-2l0 0c0,0 0,-1 1,-1l0 0c1,0 1,0 2,0 0,0 0,0 1,-1l0 -1c-1,0 -1,0 -1,0l-48 0c0,0 0,0 -1,0l0 1c1,1 1,1 1,1 1,0 1,0 2,0l0 0c0,0 1,1 1,1 1,1 1,1 1,2l0 0c0,1 0,2 0,2l-13 26 0 0c-1,0 -1,1 -1,1 0,1 0,1 0,1l0 9c0,2 1,4 3,5 2,1 4,2 7,2l24 0 24 0c3,0 5,-1 7,-2 2,-1 3,-3 3,-5l0 -9c0,0 0,0 0,-1 0,0 -1,-1 -1,-1l0 0z"/>
   <path class="fil1" d="M228 200c2,0 3,1 3,3 0,1 -1,3 -3,3l-34 -1c-1,0 -2,-1 -2,-3 0,-1 1,-2 3,-2l33 0z"/>
   <path class="fil1" d="M208 197c-1,2 -2,2 -4,2 -1,-1 -2,-3 -1,-4 0,0 15,-35 31,-55 17,-21 33,-31 33,-31l5 -3 -1 5c0,0 0,14 -10,35 -5,10 -9,18 -14,25l0 0c-5,7 -9,12 -12,14 -5,3 -18,3 -23,2 -3,6 -4,10 -4,10zm30 -54c-9,11 -17,27 -23,39 5,0 14,1 17,-1 2,-2 6,-6 11,-13l0 0c4,-6 9,-15 13,-24 6,-12 8,-21 9,-27 -6,4 -16,13 -27,26z"/>
  </g>
 </g>
</svg>
