<?xml version="1.0" encoding="UTF-8"?>
<!DOCTYPE svg PUBLIC "-//W3C//DTD SVG 1.1//EN" "http://www.w3.org/Graphics/SVG/1.1/DTD/svg11.dtd">
<!-- Creator: CorelDRAW X7 -->
<svg xmlns="http://www.w3.org/2000/svg" xml:space="preserve" width="17.9232mm" height="17.9232mm" version="1.1" style="shape-rendering:geometricPrecision; text-rendering:geometricPrecision; image-rendering:optimizeQuality; fill-rule:evenodd; clip-rule:evenodd"
viewBox="0 0 572 572"
 xmlns:xlink="http://www.w3.org/1999/xlink">
 <defs>
  <style type="text/css">
   <![CDATA[
    .fil0 {fill:none}
    .fil1 {fill:#757575;fill-rule:nonzero}
   ]]>
  </style>
 </defs>
 <g id="Layer_x0020_1">
  <metadata id="CorelCorpID_0Corel-Layer"/>
  <rect class="fil0" width="572" height="572"/>
  <g id="_2071324127264">
   <path class="fil1" d="M314 420c2,0 4,2 4,5 0,3 -2,5 -4,5l-158 0c-8,0 -16,-4 -22,-9 -6,-6 -9,-14 -9,-23l0 -233c0,-9 3,-17 9,-22l0 0c6,-6 14,-10 22,-10l42 0c3,0 5,3 5,5 0,3 -2,5 -5,5l-42 0c-6,0 -11,2 -15,6l0 0c-4,4 -7,10 -7,16l0 233c0,6 3,12 7,16 4,4 9,6 15,6l158 0z"/>
   <path class="fil1" d="M372 143c-3,0 -5,-2 -5,-5 0,-2 2,-5 5,-5l43 0c9,0 17,4 23,10l0 0c6,5 9,13 9,22l0 177c0,3 -2,5 -5,5 -2,0 -4,-2 -4,-5l0 -177c0,-6 -3,-12 -7,-16 -4,-4 -10,-6 -16,-6l-43 0z"/>
   <path class="fil1" d="M246 143c-3,0 -5,-2 -5,-5 0,-2 2,-5 5,-5l92 0c3,0 5,3 5,5 0,3 -2,5 -5,5l-92 0z"/>
   <path class="fil1" d="M167 212c-3,0 -5,-2 -5,-5 0,-2 2,-4 5,-4l275 0c3,0 5,2 5,4 0,3 -2,5 -5,5l-275 0z"/>
   <path class="fil1" d="M216 105l0 0c6,0 12,2 16,6 3,4 6,9 6,15l0 32c0,6 -3,12 -6,16 -4,4 -10,6 -16,6l0 0c-6,0 -11,-2 -15,-6 -4,-4 -6,-10 -6,-16l0 -32c0,-6 2,-11 6,-15 4,-4 9,-6 15,-6zm0 9l0 0c-3,0 -6,2 -8,4 -3,2 -4,5 -4,8l0 32c0,4 1,7 4,9 2,2 5,4 8,4l0 0c4,0 7,-2 9,-4 2,-2 3,-5 3,-9l0 -32c0,-3 -1,-6 -3,-8 -2,-2 -5,-4 -9,-4zm139 -9l0 0c6,0 12,2 16,6 4,4 6,9 6,15l0 32c0,6 -2,12 -6,16 -4,4 -10,6 -16,6l0 0c-5,0 -11,-2 -15,-6 -4,-4 -6,-10 -6,-16l0 -32c0,-6 2,-11 6,-15 4,-4 10,-6 15,-6zm0 9l0 0c-3,0 -6,2 -8,4 -2,2 -4,5 -4,8l0 32c0,4 2,7 4,9 2,2 5,4 8,4l0 0c4,0 7,-2 9,-4 2,-2 4,-5 4,-9l0 -32c0,-3 -2,-6 -4,-8 -2,-2 -5,-4 -9,-4z"/>
   <path class="fil1" d="M238 221l33 0c2,0 4,1 6,3 1,1 2,3 2,6l0 33c0,2 -1,4 -2,6l0 0c-2,1 -4,2 -6,2l-33 0c-3,0 -5,-1 -6,-2l0 0c-2,-2 -3,-4 -3,-6l0 -33c0,-3 1,-5 3,-6l0 0c1,-2 3,-3 6,-3zm32 10l-31 0 0 31 31 0 0 -31z"/>
   <path class="fil1" d="M301 221l33 0c2,0 5,1 6,3 2,1 3,3 3,6l0 33c0,2 -1,4 -3,6l0 0c-1,1 -4,2 -6,2l-33 0c-2,0 -5,-1 -6,-2l0 0c-2,-2 -3,-4 -3,-6l0 -33c0,-3 1,-5 3,-6l0 0c1,-2 4,-3 6,-3zm32 10l-31 0 0 31 31 0 0 -31z"/>
   <path class="fil1" d="M364 221l33 0c3,0 5,1 6,3 2,1 3,3 3,6l0 33c0,2 -1,4 -3,6l0 0c-1,1 -3,2 -6,2l-33 0c-2,0 -4,-1 -6,-2l0 0c-1,-2 -2,-4 -2,-6l0 -33c0,-3 1,-5 2,-6l0 0c2,-2 4,-3 6,-3zm32 10l-31 0 0 31 31 0 0 -31z"/>
   <path class="fil1" d="M238 284l33 0c2,0 4,1 6,2 1,2 2,4 2,6l0 33c0,3 -1,5 -2,6l0 0c-2,2 -4,3 -6,3l-33 0c-3,0 -5,-1 -6,-3l0 0c-2,-1 -3,-3 -3,-6l0 -33c0,-2 1,-4 3,-6l0 0c1,-1 3,-2 6,-2zm32 9l-31 0 0 31 31 0 0 -31z"/>
   <path class="fil1" d="M301 284l33 0c2,0 5,1 6,2 2,2 3,4 3,6l0 33c0,3 -1,5 -3,6l0 0c-1,2 -4,3 -6,3l-33 0c-2,0 -5,-1 -6,-3l0 0c-2,-1 -3,-3 -3,-6l0 -33c0,-2 1,-4 3,-6l0 0c1,-1 4,-2 6,-2zm32 9l-31 0 0 31 31 0 0 -31z"/>
   <path class="fil1" d="M364 284l33 0c3,0 5,1 6,2 2,2 3,4 3,6l0 33c0,3 -1,5 -3,6l0 0c-1,2 -3,3 -6,3l-33 0c-2,0 -4,-1 -6,-3l0 0c-1,-1 -2,-3 -2,-6l0 -33c0,-2 1,-4 2,-6l0 0c2,-1 4,-2 6,-2zm32 9l-31 0 0 31 31 0 0 -31z"/>
   <path class="fil1" d="M174 284l34 0c2,0 4,1 5,2 2,2 3,4 3,6l0 33c0,3 -1,5 -3,6l0 0c-1,2 -3,3 -5,3l-34 0c-2,0 -4,-1 -6,-3l0 0c-1,-1 -2,-3 -2,-6l0 -33c0,-2 1,-4 2,-6l0 0c2,-1 4,-2 6,-2zm32 9l-31 0 0 31 31 0 0 -31z"/>
   <path class="fil1" d="M238 346l33 0c2,0 4,1 6,3 1,1 2,3 2,6l0 33c0,2 -1,4 -2,6l0 0c-2,1 -4,2 -6,2l-33 0c-3,0 -5,-1 -6,-2l0 0c-2,-2 -3,-4 -3,-6l0 -33c0,-3 1,-5 3,-6l0 0c1,-2 3,-3 6,-3zm32 10l-31 0 0 31 31 0 0 -31z"/>
   <path class="fil1" d="M301 346l33 0c2,0 5,1 6,3l0 0c2,1 3,3 3,6l0 33c0,2 -1,4 -3,6l0 0c-1,1 -4,2 -6,2l-33 0c-2,0 -5,-1 -6,-2l0 0c-2,-2 -3,-4 -3,-6l0 -33c0,-3 1,-5 3,-6 1,-2 4,-3 6,-3z"/>
   <path class="fil1" d="M174 346l34 0c2,0 4,1 5,3 2,1 3,3 3,6l0 33c0,2 -1,4 -3,6l0 0c-1,1 -3,2 -5,2l-34 0c-2,0 -4,-1 -6,-2l0 0c-1,-2 -2,-4 -2,-6l0 -33c0,-3 1,-5 2,-6l0 0c2,-2 4,-3 6,-3zm32 10l-31 0 0 31 31 0 0 -31z"/>
   <path class="fil1" d="M174 221l34 0c2,0 4,1 5,3 2,1 3,3 3,6l0 33c0,2 -1,4 -3,6l0 0c-1,1 -3,2 -5,2l-34 0c-2,0 -4,-1 -6,-2l0 0c-1,-2 -2,-4 -2,-6l0 -33c0,-3 1,-5 2,-6l0 0c2,-2 4,-3 6,-3zm32 10l-31 0 0 31 31 0 0 -31z"/>
   <path class="fil1" d="M360 407c4,16 12,28 22,38 -39,23 -79,44 -122,56 -2,-4 -4,-8 -7,-12 27,-27 88,-71 107,-82z"/>
   <path class="fil1" d="M364 405c5,15 12,28 23,37 42,-26 97,-52 109,-79 -3,-6 -6,-12 -10,-18 -28,-2 -77,34 -122,60z"/>
   <path class="fil1" d="M250 494l5 8 -12 2c0,0 7,-10 7,-10z"/>
   <path class="fil1" d="M404 450c-2,2 -5,1 -6,-1 -2,-3 -1,-5 1,-7 0,0 57,-35 71,-44 14,-10 27,-25 27,-25 2,-2 5,-2 6,0 2,2 3,5 1,7 0,0 -14,16 -28,26 -14,9 -72,44 -72,44z"/>
   <polygon class="fil1" points="491,345 499,358 509,352 502,340 "/>
  </g>
 </g>
</svg>
