<svg style="max-width:200px" width="310px" height="95px" viewBox="0 0 310 95" version="1.1" xmlns="http://www.w3.org/2000/svg"><g id="Landing-Page" stroke="none" stroke-width="1" fill="none" fill-rule="evenodd"><g id="Truth-Social-Logo" transform="translate(0.310000, 0.130000)" fill="#232B6A" fill-rule="nonzero"><polygon id="Path" points="19.49 15.78 0 15.78 0 0 57 0 57 15.78 37.51 15.78 37.51 64.98 19.5 64.98 19.5 15.78"></polygon><path d="M61.64,1.13686838e-13 L92.37,1.13686838e-13 C97.38,1.13686838e-13 101.62,0.62 105.09,1.86 C108.55,3.1 111.37,4.83 113.54,7.06 C117.38,10.77 119.29,15.82 119.29,22.19 L119.29,22.38 C119.29,27.39 118.08,31.54 115.67,34.82 C113.26,38.1 110.01,40.61 105.92,42.34 L121.42,64.99 L100.63,64.99 L87.54,45.31 L87.35,45.31 L79.65,45.31 L79.65,64.99 L61.64,64.99 L61.64,1.13686838e-13 Z M91.53,31.19 C94.62,31.19 97.01,30.49 98.68,29.1 C100.35,27.71 101.19,25.84 101.19,23.48 L101.19,23.29 C101.19,20.69 100.32,18.76 98.59,17.49 C96.86,16.22 94.47,15.59 91.44,15.59 L79.65,15.59 L79.65,31.18 L91.53,31.18 L91.53,31.19 Z" id="Shape"></path><path d="M154.37,66.19 C149.73,66.19 145.55,65.6 141.84,64.43 C138.13,63.26 134.97,61.44 132.37,59 C129.77,56.56 127.78,53.46 126.38,49.72 C124.99,45.98 124.29,41.57 124.29,36.49 L124.29,0 L142.67,0 L142.67,36.11 C142.67,40.81 143.74,44.29 145.89,46.55 C148.04,48.81 150.93,49.94 154.55,49.94 C158.17,49.94 161.06,48.86 163.21,46.69 C165.36,44.52 166.43,41.15 166.43,36.57 L166.43,0 L184.81,0 L184.81,36.02 C184.81,41.28 184.08,45.81 182.63,49.62 C181.17,53.43 179.13,56.55 176.5,59 C173.87,61.45 170.68,63.26 166.94,64.43 C163.2,65.6 159.01,66.19 154.37,66.19 Z" id="Path"></path><polygon id="Path" points="208.11 15.78 188.62 15.78 188.62 0 245.62 0 245.62 15.78 226.13 15.78 226.13 64.98 208.12 64.98 208.12 15.78"></polygon><polygon id="Path" points="250.26 0 268.27 0 268.27 24.32 291.38 24.32 291.38 0 309.39 0 309.39 64.98 291.38 64.98 291.38 40.29 268.27 40.29 268.27 64.98 250.26 64.98"></polygon><path d="M206.4,93.88 C205.06,93.88 203.83,93.66 202.72,93.22 C201.61,92.78 200.55,92.1 199.54,91.19 L200.72,89.8 C201.6,90.6 202.49,91.2 203.38,91.59 C204.28,91.98 205.31,92.18 206.48,92.18 C207.62,92.18 208.52,91.91 209.2,91.38 C209.88,90.84 210.22,90.16 210.22,89.33 L210.22,89.28 C210.22,88.9 210.16,88.55 210.03,88.24 C209.9,87.93 209.68,87.64 209.36,87.39 C209.04,87.13 208.59,86.9 208.02,86.69 C207.45,86.48 206.73,86.28 205.84,86.09 C204.88,85.88 204.04,85.64 203.33,85.37 C202.62,85.1 202.03,84.77 201.56,84.39 C201.1,84.01 200.75,83.56 200.53,83.05 C200.31,82.54 200.19,81.94 200.19,81.25 L200.19,81.2 C200.19,80.54 200.33,79.94 200.6,79.38 C200.87,78.82 201.26,78.34 201.75,77.93 C202.25,77.52 202.83,77.2 203.5,76.97 C204.17,76.74 204.91,76.62 205.71,76.62 C206.94,76.62 208.02,76.79 208.94,77.14 C209.86,77.48 210.75,78 211.62,78.69 L210.52,80.15 C209.74,79.51 208.95,79.05 208.16,78.76 C207.37,78.47 206.54,78.33 205.68,78.33 C204.58,78.33 203.7,78.59 203.06,79.11 C202.42,79.63 202.1,80.27 202.1,81.04 L202.1,81.09 C202.1,81.49 202.16,81.85 202.29,82.16 C202.42,82.47 202.65,82.76 202.99,83.02 C203.33,83.28 203.79,83.52 204.38,83.74 C204.97,83.96 205.73,84.16 206.66,84.35 C208.53,84.77 209.91,85.34 210.8,86.08 C211.69,86.82 212.13,87.82 212.13,89.1 L212.13,89.15 C212.13,89.87 211.99,90.52 211.7,91.11 C211.42,91.69 211.02,92.19 210.52,92.61 C210.02,93.03 209.42,93.35 208.72,93.57 C208,93.77 207.23,93.88 206.4,93.88 Z" id="Path"></path><path d="M227.38,93.93 C226.1,93.93 224.94,93.7 223.89,93.23 C222.84,92.77 221.94,92.14 221.19,91.35 C220.44,90.56 219.86,89.64 219.45,88.59 C219.04,87.54 218.84,86.44 218.84,85.29 L218.84,85.24 C218.84,84.09 219.05,82.98 219.46,81.93 C219.88,80.87 220.46,79.95 221.21,79.16 C221.96,78.37 222.87,77.74 223.92,77.26 C224.98,76.79 226.14,76.55 227.42,76.55 C228.7,76.55 229.86,76.78 230.91,77.25 C231.96,77.71 232.86,78.34 233.61,79.13 C234.36,79.92 234.94,80.84 235.35,81.89 C235.76,82.94 235.96,84.04 235.96,85.19 C235.98,85.21 235.98,85.22 235.96,85.24 C235.96,86.39 235.75,87.5 235.34,88.55 C234.92,89.61 234.34,90.53 233.59,91.32 C232.84,92.11 231.93,92.74 230.88,93.22 C229.83,93.69 228.66,93.93 227.38,93.93 Z M227.43,92.18 C228.39,92.18 229.27,92 230.08,91.64 C230.89,91.28 231.58,90.79 232.16,90.16 C232.74,89.54 233.19,88.81 233.52,87.98 C233.85,87.15 234.01,86.25 234.01,85.29 L234.01,85.24 C234.01,84.28 233.85,83.38 233.52,82.54 C233.19,81.7 232.73,80.97 232.14,80.34 C231.55,79.72 230.85,79.22 230.04,78.85 C229.23,78.48 228.35,78.3 227.39,78.3 C226.43,78.3 225.55,78.48 224.74,78.84 C223.93,79.2 223.24,79.69 222.66,80.32 C222.08,80.94 221.63,81.67 221.3,82.5 C220.97,83.33 220.81,84.23 220.81,85.19 L220.81,85.24 C220.81,86.2 220.97,87.1 221.3,87.94 C221.63,88.78 222.09,89.51 222.68,90.14 C223.27,90.76 223.97,91.26 224.78,91.63 C225.58,91.99 226.47,92.18 227.43,92.18 Z" id="Shape"></path><path d="M251.26,93.93 C250.04,93.93 248.92,93.71 247.9,93.26 C246.88,92.81 245.99,92.2 245.24,91.42 C244.49,90.64 243.9,89.73 243.48,88.67 C243.06,87.61 242.84,86.49 242.84,85.29 L242.84,85.24 C242.84,84.06 243.05,82.94 243.48,81.88 C243.9,80.82 244.49,79.9 245.24,79.11 C245.99,78.32 246.89,77.69 247.93,77.24 C248.97,76.78 250.11,76.56 251.34,76.56 C252.11,76.56 252.8,76.62 253.42,76.75 C254.04,76.88 254.61,77.06 255.14,77.29 C255.67,77.52 256.16,77.8 256.6,78.13 C257.05,78.46 257.48,78.82 257.9,79.22 L256.6,80.61 C255.88,79.94 255.11,79.39 254.28,78.95 C253.46,78.52 252.47,78.3 251.32,78.3 C250.39,78.3 249.53,78.48 248.74,78.83 C247.95,79.18 247.26,79.67 246.68,80.29 C246.1,80.91 245.64,81.65 245.31,82.49 C244.98,83.33 244.82,84.23 244.82,85.19 L244.82,85.24 C244.82,86.22 244.98,87.12 245.31,87.96 C245.64,88.8 246.09,89.53 246.68,90.16 C247.26,90.78 247.95,91.28 248.74,91.64 C249.53,92 250.39,92.18 251.32,92.18 C252.47,92.18 253.46,91.97 254.3,91.54 C255.13,91.12 255.95,90.52 256.75,89.75 L258,90.97 C257.57,91.42 257.12,91.82 256.64,92.18 C256.17,92.54 255.66,92.85 255.12,93.1 C254.58,93.36 253.99,93.56 253.37,93.7 C252.72,93.86 252.03,93.93 251.26,93.93 Z" id="Path"></path><polygon id="Path" points="265.06 76.84 266.96 76.84 266.96 93.64 265.06 93.64"></polygon><path d="M281.69,76.72 L283.47,76.72 L291.13,93.64 L289.09,93.64 L287.12,89.2 L277.98,89.2 L275.99,93.64 L274.05,93.64 L281.69,76.72 Z M286.37,87.5 L282.55,78.93 L278.71,87.5 L286.37,87.5 Z" id="Shape"></path><polygon id="Path" points="298.03 76.84 299.93 76.84 299.93 91.89 309.39 91.89 309.39 93.64 298.04 93.64 298.04 76.84"></polygon></g></g></svg>